<svg width="81" height="51" viewBox="0 0 81 51" fill="none" xmlns="http://www.w3.org/2000/svg">
<path d="M71.3002 49.6995H21.7002L6.7002 38.2126H57.9002L71.6002 48.7007C71.7116 48.7565 71.7998 48.8499 71.8491 48.9642C71.8985 49.0786 71.9059 49.2066 71.8701 49.3259C71.8342 49.4452 71.7575 49.548 71.6533 49.6164C71.549 49.6847 71.424 49.7141 71.3002 49.6995Z" fill="white" stroke="#1B192E" stroke-width="1.5" stroke-miterlimit="10"/>
<path d="M70.9 44.9049H21.8L3 28.7234H54.2L71.4 43.5065C71.5256 43.6097 71.6162 43.7491 71.6595 43.9056C71.7028 44.0622 71.6967 44.2283 71.642 44.3812C71.5873 44.5342 71.4867 44.6665 71.3539 44.7602C71.2212 44.854 71.0626 44.9045 70.9 44.9049Z" fill="white" stroke="#1B192E" stroke-width="1.5" stroke-miterlimit="10"/>
<path d="M72.6 44.9047H21.8L3 17.8357H54.2L72.8 44.5051C72.8156 44.5443 72.8227 44.5864 72.8209 44.6285C72.819 44.6707 72.8084 44.7119 72.7895 44.7496C72.7706 44.7873 72.7439 44.8206 72.7113 44.8473C72.6787 44.8741 72.6408 44.8936 72.6 44.9047Z" stroke="#F4992C" stroke-width="1.5" stroke-miterlimit="10"/>
<path d="M73.0002 49.6993H22.1002C22.0597 49.7042 22.0185 49.6997 21.9799 49.6864C21.9413 49.673 21.9063 49.6511 21.8774 49.6222C21.8485 49.5934 21.8265 49.5584 21.8132 49.5199C21.7998 49.4813 21.7954 49.4402 21.8002 49.3997V38.7119H73.0002V49.6993Z" fill="#F4992C" stroke="#1B192E" stroke-width="1.5" stroke-miterlimit="10"/>
<path d="M72.8999 38.612H21.6999L8.8999 10.0447H60.0999L72.8999 38.612Z" fill="white" stroke="#1B192E" stroke-width="1.5" stroke-miterlimit="10"/>
<path d="M80.8999 28.923H29.6999L16.8999 0.355713H68.0999L80.8999 28.923Z" fill="#FFBD05"/>
<path d="M37.9998 24.4281L29.2998 5.05029" stroke="#1B192E" stroke-width="1.5" stroke-linecap="square" stroke-linejoin="round"/>
<path d="M48.2 24.4281L39.5 5.05029" stroke="#1B192E" stroke-width="1.5" stroke-linecap="square" stroke-linejoin="round"/>
<path d="M58.3001 24.4281L49.6001 5.05029" stroke="#1B192E" stroke-width="1.5" stroke-linecap="square" stroke-linejoin="round"/>
<path d="M68.5002 24.4281L59.7002 5.05029" stroke="#1B192E" stroke-width="1.5" stroke-linecap="square" stroke-linejoin="round"/>
</svg>
