<svg width="72" height="53" viewBox="0 0 72 53" fill="none" xmlns="http://www.w3.org/2000/svg">
<path d="M57.2 0.716797H0V39.1728H57.2V0.716797Z" fill="#FFBD05"/>
<path d="M63.9002 6.80957H6.7002V45.2656H63.9002V6.80957Z" fill="white" stroke="#1B192E" stroke-width="1.5" stroke-miterlimit="10"/>
<path d="M36.5 22.292H54.5" stroke="#1B192E" stroke-width="1.5" stroke-miterlimit="10"/>
<path d="M36.5 29.7834H54.5" stroke="#1B192E" stroke-width="1.5" stroke-miterlimit="10"/>
<path d="M31.7001 33.5792C31.6886 34.5326 31.5196 35.4775 31.2001 36.376H16.6001C16.2806 35.4775 16.1117 34.5326 16.1001 33.5792C16.1066 31.811 16.7135 30.0973 17.8215 28.7184C18.9296 27.3394 20.4733 26.3768 22.2001 25.9879C22.7599 25.8721 23.3288 25.8053 23.9001 25.7881C24.472 25.7994 25.0413 25.8663 25.6001 25.9879C27.327 26.3768 28.8707 27.3394 29.9788 28.7184C31.0868 30.0973 31.6937 31.811 31.7001 33.5792Z" fill="white" stroke="#1B192E" stroke-width="1.5" stroke-miterlimit="10"/>
<path d="M23.9002 24.0901C26.2198 24.0901 28.1002 22.2119 28.1002 19.8949C28.1002 17.578 26.2198 15.6997 23.9002 15.6997C21.5806 15.6997 19.7002 17.578 19.7002 19.8949C19.7002 22.2119 21.5806 24.0901 23.9002 24.0901Z" fill="white" stroke="#1B192E" stroke-width="1.5" stroke-miterlimit="10"/>
<path d="M25.4998 26.2875C25.4988 26.5056 25.4534 26.7213 25.3663 26.9213C25.2792 27.1213 25.1523 27.3016 24.9933 27.4511C24.8343 27.6006 24.6465 27.7162 24.4413 27.7909C24.2361 27.8657 24.0178 27.8979 23.7998 27.8857C23.589 27.8884 23.3797 27.8488 23.1844 27.7695C22.9891 27.6901 22.8116 27.5725 22.6625 27.4236C22.5134 27.2746 22.3956 27.0974 22.3162 26.9023C22.2367 26.7072 22.1971 26.4981 22.1998 26.2875V25.9879C23.2498 25.7215 24.3498 25.7215 25.3998 25.9879C25.4376 26.0273 25.4662 26.0746 25.4835 26.1265C25.5008 26.1783 25.5064 26.2333 25.4998 26.2875Z" fill="#F4992C" stroke="#1B192E" stroke-width="0.5" stroke-miterlimit="10"/>
<path d="M23.9 27.8857L25.7 31.9811L23.9 34.8777L22 31.9811L23.9 27.8857Z" fill="#F4992C" stroke="#1B192E" stroke-width="0.5" stroke-miterlimit="10"/>
<path d="M71.2 13.502H14V51.958H71.2V13.502Z" stroke="#F4992C" stroke-width="1.5" stroke-miterlimit="10"/>
</svg>
