<svg width="8" height="16" viewBox="0 0 8 16" fill="none" xmlns="http://www.w3.org/2000/svg">
<path d="M0.720986 8.45764H2.28239V14.9519C2.28239 15.0801 2.38522 15.184 2.51214 15.184H5.15958C5.2865 15.184 5.38932 15.0801 5.38932 14.9519V8.48825H7.18432C7.30103 8.48825 7.39924 8.39977 7.41256 8.28264L7.68518 5.89179C7.69267 5.82602 7.67205 5.76013 7.62848 5.71078C7.58489 5.66139 7.52249 5.63312 7.45699 5.63312H5.38944V4.13439C5.38944 3.68262 5.6302 3.45352 6.10516 3.45352C6.17285 3.45352 7.45699 3.45352 7.45699 3.45352C7.58391 3.45352 7.68674 3.34957 7.68674 3.2214V1.0268C7.68674 0.898569 7.58391 0.794683 7.45699 0.794683H5.59395C5.58082 0.794037 5.55163 0.792969 5.50862 0.792969C5.18537 0.792969 4.06175 0.857082 3.17417 1.68201C2.19075 2.59618 2.32746 3.69072 2.36013 3.8805V5.63306H0.720958C0.594038 5.63306 0.491211 5.73695 0.491211 5.86517V8.2255C0.491239 8.3537 0.594066 8.45764 0.720986 8.45764Z" fill="white"/>
</svg>
