<svg width="22" height="22" viewBox="0 0 22 22" fill="none" xmlns="http://www.w3.org/2000/svg">
<ellipse cx="10.9425" cy="11" rx="10.9425" ry="11" fill="#E4DEDE"/>
<ellipse cx="10.9423" cy="11" rx="8.20691" ry="8.24999" fill="#FFBD05"/>
<path d="M8.5601 11.5766H9.53426V15.6496C9.53426 15.73 9.59841 15.7952 9.67759 15.7952H11.3293C11.4085 15.7952 11.4727 15.73 11.4727 15.6496V11.5958H12.5925C12.6654 11.5958 12.7266 11.5403 12.7349 11.4668L12.905 9.96735C12.9097 9.9261 12.8968 9.88478 12.8697 9.85383C12.8425 9.82286 12.8035 9.80512 12.7627 9.80512H11.4727V8.86517C11.4727 8.58183 11.6229 8.43814 11.9193 8.43814C11.9615 8.43814 12.7627 8.43814 12.7627 8.43814C12.8418 8.43814 12.906 8.37296 12.906 8.29257V6.91618C12.906 6.83576 12.8418 6.77061 12.7627 6.77061H11.6003C11.5921 6.7702 11.5739 6.76953 11.5471 6.76953C11.3454 6.76953 10.6444 6.80974 10.0906 7.32711C9.47708 7.90045 9.56238 8.58691 9.58275 8.70593V9.80509H8.56009C8.4809 9.80509 8.41675 9.87024 8.41675 9.95066V11.431C8.41677 11.5114 8.48092 11.5766 8.5601 11.5766Z" fill="white"/>
</svg>
