<svg width="22" height="22" viewBox="0 0 22 22" fill="none" xmlns="http://www.w3.org/2000/svg">
<ellipse cx="11.0575" cy="11" rx="10.9425" ry="11" fill="#E4DEDE"/>
<ellipse cx="11.0573" cy="11" rx="8.20691" ry="8.24999" fill="#FFBD05"/>
<path d="M12.5914 6.76758H8.96234C7.48748 6.76758 6.2876 7.97376 6.2876 9.45636V13.1044C6.2876 14.587 7.48748 15.7932 8.96234 15.7932H12.5914C14.0662 15.7932 15.2661 14.587 15.2661 13.1044V9.45636C15.2661 7.97376 14.0662 6.76758 12.5914 6.76758ZM14.3629 13.1044C14.3629 14.0879 13.5697 14.8852 12.5914 14.8852H8.96234C7.98397 14.8852 7.19083 14.0879 7.19083 13.1044V9.45636C7.19083 8.47284 7.98397 7.67556 8.96234 7.67556H12.5914C13.5697 7.67556 14.3629 8.47284 14.3629 9.45636V13.1044Z" fill="white"/>
<path d="M10.7767 8.94531C9.49631 8.94531 8.45459 9.9925 8.45459 11.2796C8.45459 12.5668 9.49631 13.614 10.7767 13.614C12.0572 13.614 13.0989 12.5668 13.0989 11.2796C13.0989 9.99248 12.0572 8.94531 10.7767 8.94531ZM10.7767 12.706C9.99309 12.706 9.35783 12.0674 9.35783 11.2797C9.35783 10.4919 9.99311 9.85329 10.7767 9.85329C11.5604 9.85329 12.1957 10.4919 12.1957 11.2797C12.1957 12.0674 11.5604 12.706 10.7767 12.706Z" fill="white"/>
<path d="M13.1038 9.52298C13.4111 9.52298 13.6602 9.27255 13.6602 8.96364C13.6602 8.65472 13.4111 8.4043 13.1038 8.4043C12.7965 8.4043 12.5474 8.65472 12.5474 8.96364C12.5474 9.27255 12.7965 9.52298 13.1038 9.52298Z" fill="white"/>
</svg>
