<svg width="23" height="22" viewBox="0 0 23 22" fill="none" xmlns="http://www.w3.org/2000/svg">
<ellipse cx="11.3146" cy="11" rx="10.9425" ry="11" fill="#E4DEDE"/>
<ellipse cx="11.3143" cy="11" rx="8.20691" ry="8.24999" fill="#FFBD05"/>
<g clip-path="url(#clip0_248_478)">
<path d="M15.8815 8.4407C15.7404 8.50358 15.5954 8.55666 15.4472 8.59976C15.6226 8.40032 15.7564 8.16565 15.838 7.90886C15.8564 7.85131 15.8374 7.7883 15.7903 7.75065C15.7433 7.71298 15.678 7.70847 15.6262 7.7393C15.3116 7.92691 14.9721 8.06175 14.6161 8.14058C14.2575 7.78836 13.7705 7.58789 13.267 7.58789C12.2042 7.58789 11.3395 8.45706 11.3395 9.5254C11.3395 9.60953 11.3448 9.69322 11.3553 9.77573C10.0365 9.65933 8.8104 9.00771 7.96846 7.9695C7.93845 7.9325 7.89223 7.91255 7.8449 7.91637C7.79755 7.92009 7.75499 7.94694 7.73107 7.98821C7.5603 8.28276 7.47003 8.61965 7.47003 8.96242C7.47003 9.42929 7.63583 9.87223 7.92874 10.2184C7.83967 10.1873 7.75325 10.1486 7.67076 10.1026C7.62648 10.0778 7.57244 10.0782 7.52844 10.1035C7.48443 10.1289 7.45682 10.1755 7.45565 10.2265C7.45544 10.2351 7.45544 10.2437 7.45544 10.2524C7.45544 10.9492 7.82854 11.5766 8.39897 11.9186C8.34995 11.9137 8.30099 11.9065 8.25233 11.8972C8.20216 11.8875 8.15059 11.9052 8.11676 11.9437C8.08288 11.9821 8.07166 12.0357 8.08728 12.0846C8.29841 12.7473 8.84201 13.2347 9.49918 13.3833C8.95412 13.7265 8.33082 13.9062 7.6765 13.9062C7.53996 13.9062 7.40265 13.8982 7.26828 13.8822C7.20152 13.8742 7.13768 13.9138 7.11494 13.9776C7.0922 14.0415 7.11631 14.1127 7.17309 14.1493C8.01368 14.6911 8.98563 14.9774 9.98384 14.9774C11.9462 14.9774 13.1738 14.0472 13.858 13.2669C14.7113 12.2938 15.2006 11.0059 15.2006 9.73328C15.2006 9.68012 15.1998 9.62644 15.1982 9.57292C15.5348 9.31797 15.8246 9.0094 16.0605 8.65476C16.0963 8.60091 16.0924 8.52971 16.0509 8.48014C16.0095 8.43048 15.9404 8.41444 15.8815 8.4407Z" fill="white"/>
</g>
<defs>
<clipPath id="clip0_248_478">
<rect width="8.9785" height="9.02563" fill="white" transform="translate(7.10645 6.76953)"/>
</clipPath>
</defs>
</svg>
