<?xml version="1.0" encoding="utf-8"?>
<!-- Generator: Adobe Illustrator 21.0.0, SVG Export Plug-In . SVG Version: 6.00 Build 0)  -->
<svg version="1.1" id="Layer_1" xmlns="http://www.w3.org/2000/svg" xmlns:xlink="http://www.w3.org/1999/xlink" x="0px" y="0px"
	 viewBox="0 0 80 80" style="enable-background:new 0 0 80 80;" xml:space="preserve">
<style type="text/css">
	.st0{fill:#FFFFFF;}
</style>
<path class="st0" d="M63,31.5c0-4.2,0-8.4,0-12.7c4.2,0,8.4,0,12.8,0c0,4.2,0,8.3,0,12.7C71.6,31.5,67.4,31.5,63,31.5z M62.9,46.3
	c0-4.4,0-8.5,0-12.8c4.3,0,8.5,0,12.8,0c0,4.2,0,8.4,0,12.8C71.5,46.3,67.3,46.3,62.9,46.3z M63,48.3c4.3,0,8.4,0,12.8,0
	c0,4.2,0,8.5,0,12.8c-4.3,0-8.5,0-12.8,0C63,56.8,63,52.6,63,48.3z M80,80c-26.7,0-53.3,0-80,0C0,53.3,0,26.7,0,0
	c26.6,0,53.2,0,80,0C80,26.6,80,53.2,80,80z M77.5,17.1c-25.2,0-50.1,0-75,0c0,20.2,0,40.4,0,60.5c25.1,0,50,0,75,0
	C77.5,57.4,77.5,37.3,77.5,17.1z M18.9,18.8c4.3,0,8.4,0,12.8,0c0,4.3,0,8.5,0,12.8c-4.3,0-8.4,0-12.8,0
	C18.9,27.3,18.9,23.1,18.9,18.8z M33.6,31.5c0-4.3,0-8.5,0-12.8c4.3,0,8.4,0,12.8,0c0,4.2,0,8.4,0,12.8C42.2,31.5,38,31.5,33.6,31.5
	z M48.3,18.8c4.2,0,8.4,0,12.7,0c0,4.3,0,8.5,0,12.8c-4.2,0-8.4,0-12.7,0C48.3,27.3,48.3,23.1,48.3,18.8z M46.4,46.3
	c-4.2,0-8.4,0-12.7,0c0-4.3,0-8.5,0-12.8c4.2,0,8.4,0,12.7,0C46.4,37.8,46.4,42,46.4,46.3z M48.3,33.5c4.4,0,8.6,0,12.8,0
	c0,4.3,0,8.5,0,12.8c-4.3,0-8.5,0-12.8,0C48.3,42,48.3,37.8,48.3,33.5z M48.3,61.1c0-4.3,0-8.4,0-12.8c4.3,0,8.5,0,12.8,0
	c0,4.3,0,8.4,0,12.8C56.8,61.1,52.6,61.1,48.3,61.1z M46.4,63.1c0,4.3,0,8.5,0,12.8c-4.2,0-8.4,0-12.8,0c0-4.2,0-8.4,0-12.8
	C37.8,63.1,42,63.1,46.4,63.1z M48.3,75.9c0-4.3,0-8.4,0-12.8c4.3,0,8.5,0,12.8,0c0,4.2,0,8.4,0,12.8C56.8,75.9,52.6,75.9,48.3,75.9
	z M16.9,46.3c-4.3,0-8.4,0-12.8,0c0-4.2,0-8.4,0-12.8c4.2,0,8.4,0,12.8,0C16.9,37.8,16.9,41.9,16.9,46.3z M18.9,46.3
	c0-4.4,0-8.5,0-12.8c4.3,0,8.4,0,12.8,0c0,4.3,0,8.5,0,12.8C27.4,46.3,23.2,46.3,18.9,46.3z M4.2,48.3c4.2,0,8.4,0,12.7,0
	c0,4.2,0,8.4,0,12.8c-4.2,0-8.4,0-12.7,0C4.2,56.9,4.2,52.7,4.2,48.3z M18.9,48.3c4.3,0,8.4,0,12.7,0c0,4.3,0,8.5,0,12.8
	c-4.2,0-8.4,0-12.7,0C18.9,56.9,18.9,52.6,18.9,48.3z M33.6,48.3c4.3,0,8.5,0,12.7,0c0,4.3,0,8.5,0,12.8c-4.2,0-8.4,0-12.7,0
	C33.6,56.9,33.6,52.7,33.6,48.3z M4.1,75.9c0-4.4,0-8.5,0-12.8c4.3,0,8.4,0,12.8,0c0,4.2,0,8.4,0,12.8C12.6,75.9,8.5,75.9,4.1,75.9z
	 M31.7,63.1c0,4.3,0,8.5,0,12.8c-4.3,0-8.4,0-12.8,0c0-4.2,0-8.5,0-12.8C23.2,63.1,27.3,63.1,31.7,63.1z"/>
</svg>
