<?xml version="1.0" encoding="utf-8"?>
<!-- Generator: Adobe Illustrator 21.0.1, SVG Export Plug-In . SVG Version: 6.00 Build 0)  -->
<svg version="1.1" id="Layer_1" xmlns="http://www.w3.org/2000/svg" xmlns:xlink="http://www.w3.org/1999/xlink" x="0px" y="0px"
	 viewBox="0 0 80 63" style="enable-background:new 0 0 80 63;" xml:space="preserve">
<style type="text/css">
	.st0{fill-rule:evenodd;clip-rule:evenodd;fill:#FFFFFF;}
	.st1{fill:#FFFFFF;}
</style>
<path class="st1" d="M4.3,0h60c1.2,0,2.3,0.5,3.1,1.3c0.8,0.8,1.3,1.9,1.3,3.1v44l8.2-32.8c0-0.1,0-0.1,0-0.2c0-0.1,0-0.1,0-0.1
	c0,0,0,0-0.1,0l-0.1,0h-6.8v-3.2h6.8c0.3,0,0.6,0,0.8,0.1c0.8,0.2,1.4,0.6,1.9,1.2c0.4,0.6,0.7,1.3,0.7,2.1c0,0.3,0,0.6-0.1,0.9
	L69.1,59.5c-0.2,1-0.8,1.9-1.6,2.5c-0.5,0.4-1.1,0.7-1.7,0.9v-0.1c-0.5,0.2-1,0.3-1.6,0.3h-60c-1.2,0-2.3-0.5-3.1-1.3
	C0.5,61,0,59.9,0,58.7V4.3C0,3.1,0.5,2,1.3,1.3C2,0.5,3.1,0,4.3,0L4.3,0z M11.7,11.9h21c1,0,1.8,0.8,1.8,1.8v11.9
	c0,1-0.8,1.8-1.8,1.8h-21c-1,0-1.8-0.8-1.8-1.8V13.6C9.9,12.7,10.7,11.9,11.7,11.9L11.7,11.9z M11.7,47.4h45.2c1,0,1.8,0.8,1.8,1.8
	v0.2c0,0.9-0.8,1.8-1.8,1.8H11.7c-0.9,0-1.8-0.8-1.8-1.8v-0.2C9.9,48.2,10.7,47.4,11.7,47.4L11.7,47.4z M11.7,35.6h45.2
	c1,0,1.8,0.8,1.8,1.8v0.2c0,0.9-0.8,1.8-1.8,1.8H11.7c-0.9,0-1.8-0.8-1.8-1.8v-0.2C9.9,36.4,10.7,35.6,11.7,35.6L11.7,35.6z
	 M42.3,11.9h14.7c1,0,1.8,0.8,1.8,1.8v0.2c0,0.9-0.8,1.8-1.8,1.8H42.3c-0.9,0-1.8-0.8-1.8-1.8v-0.2C40.5,12.7,41.3,11.9,42.3,11.9
	L42.3,11.9z M42.3,23.6h14.7c1,0,1.8,0.8,1.8,1.8v0.2c0,0.9-0.8,1.8-1.8,1.8H42.3c-0.9,0-1.8-0.8-1.8-1.8v-0.2
	C40.5,24.4,41.3,23.6,42.3,23.6L42.3,23.6z M64.3,3.2h-60C4,3.2,3.7,3.3,3.5,3.5C3.3,3.7,3.2,4,3.2,4.3v54.4c0,0.3,0.1,0.6,0.3,0.8
	c0.2,0.2,0.5,0.3,0.8,0.3h60c0.3,0,0.6-0.1,0.8-0.3c0.2-0.2,0.3-0.5,0.3-0.8V4.3c0-0.3-0.1-0.6-0.3-0.8C64.9,3.3,64.6,3.2,64.3,3.2
	L64.3,3.2z"/>
</svg>
