<?xml version="1.0" encoding="utf-8"?>
<!-- Generator: Adobe Illustrator 21.0.1, SVG Export Plug-In . SVG Version: 6.00 Build 0)  -->
<svg version="1.1" id="Layer_1" xmlns="http://www.w3.org/2000/svg" xmlns:xlink="http://www.w3.org/1999/xlink" x="0px" y="0px"
	 viewBox="0 0 80 61" style="enable-background:new 0 0 80 61;" xml:space="preserve">
<style type="text/css">
	.st0{fill-rule:evenodd;clip-rule:evenodd;fill:#FFFFFF;}
</style>
<path class="st0" d="M0.7,52C-0.4,46.8-0.1,41,1,39.2c4.3-6.6,12.2-4.7,10.9-11.3c-0.5-2.7-3.3-5.9-3.2-9.6c0.1-3.7,1.9-8.2,7.7-8.3
	c5.8,0.2,7.6,4.6,7.7,8.3c0.1,3.7-1.9,7.1-3.2,9.6c-1.3,2.5-6.9,15.5-4.5,16.2c1.4-0.5,1.2-3.5,2-4.8c5.5-8.3,17.9-9.7,15.4-14.6
	c-1.8-3.4-4.5-8.1-4.3-13.2C29.6,6.3,32.1,0.2,40,0c7.9,0.2,10.4,6.3,10.5,11.5c0.1,5.1-2.6,9.8-4.3,13.2
	c-2.5,4.9,9.8,6.2,15.4,14.6c0.9,1.3,0.7,4.3,2,4.8c2.3-0.7-3.3-13.7-4.5-16.2c-1.3-2.5-3.3-5.9-3.2-9.6c0.1-3.7,1.9-8.2,7.7-8.3
	c5.8,0.2,7.6,4.6,7.7,8.3c0.1,3.7-2.6,6.9-3.2,9.6c-1.3,6.6,6.6,4.7,10.9,11.3c1.2,1.8,1.5,7.7,0.3,12.9C61.7,64,18.3,64,0.7,52
	L0.7,52z"/>
</svg>
