<?xml version="1.0" encoding="utf-8"?>
<!-- Generator: Adobe Illustrator 26.3.1, SVG Export Plug-In . SVG Version: 6.00 Build 0)  -->
<svg version="1.1" id="Layer_1" xmlns="http://www.w3.org/2000/svg" xmlns:xlink="http://www.w3.org/1999/xlink" x="0px" y="0px"
	 viewBox="0 0 40 40" style="enable-background:new 0 0 40 40;" xml:space="preserve">
<style type="text/css">
	.st0{fill:#5F4B8C;}
	.st1{fill:#FFFFFF;}
</style>
<rect class="st0" width="40" height="40"/>
<g>
	<path class="st1" d="M4.7,8.1c0,0.1-0.1,0.3-0.2,0.3L4.4,7.7C4.6,7.7,4.7,7.9,4.7,8.1z"/>
	<path class="st1" d="M6,5.5C6,5.8,5.8,6,5.6,6C5.5,6,5.3,5.9,5.2,5.8c-0.2-0.2-0.4-0.2-0.6,0C4.5,6,4.2,6,4,5.9
		c0,0-0.1-0.1-0.1-0.1c0-0.1-0.1-0.1-0.1-0.2c0,0,0,0,0,0c0,0,0,0,0,0L6,5.5C6,5.5,6,5.5,6,5.5z"/>
	<path class="st1" d="M7,7.8L7,7.8C6.8,7.6,6.8,7.4,7,7.2l0,0C7.2,7,7.3,6.8,7.1,6.6C7,6.4,6.7,6.3,6.5,6.5S6.2,6.9,6.4,7.1
		c0,0,0.1,0.1,0.1,0.1l0,0c0.2,0.2,0.2,0.4,0,0.6l0,0C6.3,7.9,6.2,8.2,6.4,8.4C6.5,8.6,6.8,8.6,7,8.5c0.2-0.1,0.2-0.4,0.1-0.6
		C7.1,7.8,7,7.8,7,7.8z"/>
	<path class="st1" d="M7.4,5.6C7.3,5.8,7.1,6,6.9,6h0C6.5,6,6.1,6.4,6,6.8c0,0.2-0.2,0.4-0.5,0.4c-0.2,0-0.4-0.2-0.4-0.5
		c0-0.2,0.2-0.4,0.4-0.4h0l0,0c0.4,0,0.9-0.4,0.9-0.8l0,0c0,0,0,0,0,0h0.9L7.4,5.6z"/>
	<path class="st1" d="M6,8.1c0,0.2-0.2,0.4-0.4,0.4c-0.2,0-0.4-0.2-0.4-0.4l0,0c0-0.4-0.4-0.9-0.9-0.8h0L4.1,6.4
		c0.2-0.1,0.5,0,0.6,0.2c0,0.1,0.1,0.1,0.1,0.2c0,0.4,0.4,0.9,0.9,0.8h0C5.8,7.7,6,7.9,6,8.1C6,8.1,6,8.1,6,8.1z"/>
	<path class="st1" d="M6,9.2c0,0.2-0.2,0.4-0.4,0.4c-0.1,0-0.3-0.1-0.4-0.2C5.1,9.3,4.9,9.2,4.8,9.3L4.7,9c0.2,0.2,0.4,0.1,0.5-0.1
		c0.1-0.2,0.4-0.2,0.6-0.1C6,8.9,6,9,6,9.2z"/>
	<path class="st1" d="M6.9,8.7c-0.2,0-0.4,0.2-0.4,0.4l0,0c0,0.4-0.4,0.9-0.9,0.8h0c-0.2,0-0.4,0.2-0.4,0.4c0,0.2,0.2,0.4,0.4,0.4
		c0.2,0,0.4-0.2,0.4-0.4l0,0c0-0.4,0.4-0.9,0.9-0.8h0c0.2,0,0.4-0.2,0.4-0.4C7.4,8.9,7.2,8.7,6.9,8.7L6.9,8.7z"/>
	<path class="st1" d="M8.1,8.6L8.1,8.6C8,8.6,8,8.6,8.1,8.6c-0.3,0-0.5-0.2-0.5-0.4c0-0.2,0.1-0.4,0.3-0.4L8.1,8.6z"/>
	<path class="st1" d="M11.1,8.1c0,0.2-0.2,0.4-0.4,0.4c-0.1,0-0.1,0-0.2,0l0.4-2c0.2,0.2,0.2,0.4,0.1,0.6c0,0-0.1,0.1-0.1,0.1l0,0
		c-0.2,0.2-0.2,0.4,0,0.6l0,0C11,7.8,11.1,8,11.1,8.1z"/>
	<path class="st1" d="M7.8,7.3C7.5,7.2,7.3,7,7.4,6.8c0-0.1,0.1-0.3,0.2-0.3l0,0.2L7.8,7.3L7.8,7.3z"/>
	<path class="st1" d="M13.5,5.5C13.5,5.8,13.3,6,13,6c-0.1,0-0.3-0.1-0.4-0.2c-0.2-0.2-0.4-0.2-0.6,0C11.9,6,11.6,6,11.4,5.9
		c-0.1-0.1-0.2-0.2-0.2-0.4c0,0,0,0,0,0L13.5,5.5C13.5,5.5,13.5,5.5,13.5,5.5z"/>
	<path class="st1" d="M14.7,7.6L14.7,7.6c-0.2-0.2-0.2-0.4,0-0.6l0,0c0.2-0.1,0.2-0.4,0.1-0.6c-0.1-0.2-0.4-0.2-0.6-0.1
		c-0.2,0.1-0.2,0.4-0.1,0.6c0,0,0.1,0.1,0.1,0.1l0,0c0.2,0.2,0.2,0.4,0,0.6l0,0C14,7.7,13.9,8,14.1,8.2c0.1,0.2,0.4,0.2,0.6,0.1
		c0.2-0.1,0.2-0.4,0.1-0.6C14.8,7.6,14.7,7.6,14.7,7.6z"/>
	<path class="st1" d="M14.8,5.6L14.8,5.6L14.8,5.6c0,0.2-0.2,0.4-0.4,0.4h0c-0.4,0-0.9,0.4-0.9,0.8c0,0.2-0.2,0.4-0.5,0.4
		c-0.2,0-0.4-0.2-0.4-0.5c0-0.2,0.2-0.4,0.4-0.4h0l0,0c0.4,0,0.9-0.4,0.9-0.8l0,0c0,0,0,0,0,0L14.8,5.6L14.8,5.6z"/>
	<path class="st1" d="M13.4,7.6L13.4,7.6c-0.5,0-0.9-0.4-0.9-0.8l0,0c0-0.2-0.2-0.4-0.5-0.4c-0.2,0-0.4,0.2-0.4,0.5
		c0,0.2,0.2,0.4,0.4,0.4h0c0.4,0,0.9,0.4,0.9,0.8l0,0c0,0.2,0.2,0.4,0.5,0.4c0.2,0,0.4-0.2,0.4-0.5C13.8,7.8,13.6,7.6,13.4,7.6
		L13.4,7.6z"/>
	<path class="st1" d="M8.3,9.5C8.2,9.6,8.1,9.6,8,9.6c-0.2,0-0.4-0.2-0.4-0.4S7.7,8.7,8,8.7c0,0,0.1,0,0.1,0L8.3,9.5z"/>
	<path class="st1" d="M11.1,9.2c0,0.2-0.2,0.4-0.4,0.4l0,0h0h0c-0.1,0-0.3,0-0.4,0.1l0,0L10.4,9l0,0l0-0.2c0.1,0,0.2-0.1,0.2-0.1
		C10.9,8.7,11.1,8.9,11.1,9.2z"/>
	<path class="st1" d="M13.5,9.2c0,0.2-0.2,0.4-0.4,0.4l0,0c0,0,0,0-0.1,0c0-0.1,0-0.2,0-0.2h-0.1c0,0.1,0,0.1,0,0.2
		c-0.1,0-0.1-0.1-0.1-0.1c-0.2-0.2-0.4-0.2-0.6,0c-0.1,0.2-0.4,0.2-0.6,0.1c-0.2-0.1-0.2-0.4-0.1-0.6c0.1-0.2,0.4-0.2,0.6-0.1
		c0,0,0.1,0.1,0.1,0.1c0.2,0.2,0.4,0.2,0.6,0c0.1-0.2,0.4-0.2,0.6-0.1C13.4,8.9,13.5,9,13.5,9.2z"/>
	<path class="st1" d="M14.8,9.2c0,0.2-0.2,0.4-0.4,0.4l0,0h0h0c-0.4,0-0.9,0.4-0.9,0.8c0,0.2-0.1,0.3-0.3,0.4l0,0c0-0.1,0-0.1,0-0.2
		c0-0.2-0.1-0.4-0.1-0.6l0,0h0l0,0l0,0c0.4,0,0.9-0.4,0.9-0.8l0,0c0-0.2,0.2-0.4,0.5-0.4C14.6,8.7,14.8,8.9,14.8,9.2L14.8,9.2z"/>
	<path class="st1" d="M15.5,8.6C15.5,8.6,15.4,8.6,15.5,8.6c-0.3,0-0.5-0.2-0.5-0.4c0-0.2,0.1-0.4,0.3-0.4L15.5,8.6z"/>
	<path class="st1" d="M18.5,8.1c0,0.2-0.2,0.4-0.4,0.4c0,0-0.1,0-0.1,0l0.2-1c0,0.1,0.1,0.2,0.2,0.2l0,0C18.4,7.8,18.5,8,18.5,8.1z"
		/>
	<path class="st1" d="M18.2,7.3l0.2-0.8c0.2,0.2,0.2,0.5,0,0.6c0,0,0,0,0,0l0,0C18.3,7.2,18.2,7.3,18.2,7.3z"/>
	<circle class="st1" cx="19.1" cy="8.1" r="0.4"/>
	<path class="st1" d="M20.9,5.5c0,0.2-0.2,0.4-0.4,0.4c-0.1,0-0.3-0.1-0.4-0.2c-0.2-0.2-0.4-0.2-0.6,0C19.3,6,19.1,6,18.9,5.9
		c-0.1-0.1-0.2-0.2-0.2-0.4c0,0,0,0,0,0L20.9,5.5C20.9,5.5,20.9,5.5,20.9,5.5z"/>
	<path class="st1" d="M21.9,5.5L21.8,6h0c-0.4,0-0.9,0.4-0.9,0.8c0,0.2-0.2,0.4-0.5,0.4c-0.2,0-0.4-0.2-0.4-0.5
		c0-0.2,0.2-0.4,0.4-0.4h0l0,0c0.4,0,0.9-0.4,0.9-0.8l0,0c0,0,0,0,0,0L21.9,5.5z"/>
	<path class="st1" d="M20.6,7.7L20.6,7.7c-0.5,0-0.9-0.4-0.9-0.8l0,0c0-0.2-0.2-0.4-0.5-0.4c-0.2,0-0.4,0.2-0.4,0.5
		c0,0.2,0.2,0.4,0.4,0.4h0c0.4,0,0.9,0.4,0.9,0.8l0,0c0,0.2,0.2,0.4,0.5,0.4c0.2,0,0.4-0.2,0.4-0.5C21.1,7.9,20.9,7.7,20.6,7.7
		L20.6,7.7z"/>
	<path class="st1" d="M15.7,9.5c-0.1,0.1-0.2,0.1-0.3,0.1c-0.2,0-0.4-0.2-0.4-0.4s0.2-0.4,0.4-0.4c0,0,0.1,0,0.1,0L15.7,9.5z"/>
	<path class="st1" d="M18.5,9.2c0,0.2-0.2,0.4-0.4,0.4l0,0h0c-0.1,0-0.3,0-0.4,0.1l0.2-1l0,0c0.1,0,0.1,0,0.2,0
		C18.3,8.7,18.5,8.9,18.5,9.2z"/>
	<path class="st1" d="M20.5,8.7c-0.1,0-0.3,0.1-0.4,0.2l0,0c-0.2,0.2-0.4,0.2-0.6,0l0,0c-0.1-0.2-0.4-0.2-0.6-0.1
		c-0.2,0.1-0.2,0.4-0.1,0.6c0.1,0.2,0.4,0.2,0.6,0.1c0,0,0.1-0.1,0.1-0.1l0,0c0.2-0.2,0.4-0.2,0.6,0l0,0c0.1,0.2,0.4,0.2,0.6,0.1
		c0.2-0.1,0.2-0.4,0.1-0.6C20.7,8.8,20.6,8.7,20.5,8.7z"/>
	<path class="st1" d="M20.8,10l-0.2,1c0,0-0.1,0-0.1,0c-0.2,0-0.4-0.2-0.4-0.4c0-0.2,0.2-0.4,0.4-0.4h0l0,0C20.6,10,20.7,10,20.8,10
		z"/>
	<path class="st1" d="M7.2,11.4L7.2,11.4C7,11.2,7,11,7.2,10.8l0,0c0.2-0.1,0.2-0.4,0.1-0.6C7.2,10,6.9,10,6.7,10.1
		c-0.2,0.1-0.2,0.4-0.1,0.6c0,0,0.1,0.1,0.1,0.1l0,0c0.2,0.2,0.2,0.4,0,0.6l0,0c-0.2,0.1-0.2,0.4-0.1,0.6c0.1,0.2,0.4,0.2,0.6,0.1
		C7.4,12,7.4,11.7,7.2,11.4C7.3,11.5,7.2,11.4,7.2,11.4z"/>
	<path class="st1" d="M6.9,8.7c-0.2,0-0.4,0.2-0.4,0.4l0,0c0,0.4-0.4,0.9-0.9,0.8h0c-0.2,0-0.4,0.2-0.4,0.4c0,0.2,0.2,0.4,0.4,0.4
		c0.2,0,0.4-0.2,0.4-0.4l0,0c0-0.4,0.4-0.9,0.9-0.8h0c0.2,0,0.4-0.2,0.4-0.4C7.4,8.9,7.2,8.7,6.9,8.7L6.9,8.7z"/>
	<path class="st1" d="M6,11.8c0,0.2-0.2,0.4-0.4,0.4c0,0-0.1,0-0.1,0l-0.2-0.9c0.1,0,0.2,0.1,0.3,0.1l0,0c0,0,0,0,0,0
		C5.8,11.3,6,11.5,6,11.8C6,11.8,6,11.8,6,11.8z"/>
	<path class="st1" d="M6,12.8c0,0.2-0.1,0.3-0.3,0.4l-0.2-0.9c0,0,0,0,0,0C5.8,12.4,6,12.6,6,12.8z"/>
	<path class="st1" d="M7.1,15L7.1,15c-0.2-0.2-0.2-0.4,0-0.6l0,0c0.2-0.1,0.2-0.4,0.1-0.6c-0.1-0.2-0.4-0.2-0.6-0.1
		c-0.2,0.1-0.2,0.4-0.1,0.6c0,0,0.1,0.1,0.1,0.1l0,0c0.2,0.2,0.2,0.4,0,0.6l0,0c-0.2,0.1-0.2,0.4-0.1,0.6c0.1,0.2,0.4,0.2,0.6,0.1
		c0.2-0.1,0.2-0.4,0.1-0.6C7.1,15.1,7.1,15.1,7.1,15z"/>
	<path class="st1" d="M7.4,12.8c0,0.2-0.2,0.4-0.4,0.4l0,0h0c-0.4,0-0.9,0.4-0.9,0.8c0,0,0,0.1,0,0.1l-0.2-0.6
		c0.3-0.1,0.6-0.4,0.6-0.8l0,0c0-0.2,0.2-0.4,0.4-0.4C7.2,12.4,7.4,12.6,7.4,12.8L7.4,12.8L7.4,12.8z"/>
	<path class="st1" d="M7.4,16.5c0,0.2-0.2,0.4-0.4,0.4h0h0c-0.1,0-0.1,0-0.2,0l-0.2-0.7c0.1-0.2,0.4-0.3,0.6-0.2
		C7.3,16.2,7.4,16.3,7.4,16.5L7.4,16.5z"/>
	<circle class="st1" cx="8.3" cy="11.8" r="0.4"/>
	<path class="st1" d="M11,11.4L11,11.4c-0.2-0.2-0.2-0.4,0-0.6l0,0c0.2-0.1,0.2-0.4,0.1-0.6c-0.1-0.2-0.4-0.2-0.6-0.1
		c-0.2,0.1-0.2,0.4-0.1,0.6c0,0,0.1,0.1,0.1,0.1l0,0c0.2,0.2,0.2,0.4,0,0.6l0,0c-0.2,0.1-0.2,0.4-0.1,0.6c0.1,0.2,0.4,0.2,0.6,0.1
		C11.2,12,11.2,11.7,11,11.4C11,11.5,11,11.4,11,11.4z"/>
	<path class="st1" d="M11.1,9.2c0,0.2-0.2,0.4-0.4,0.4l0,0h0h0c-0.1,0-0.3,0-0.4,0.1l0,0L10.4,9l0,0l0-0.2c0.1,0,0.2-0.1,0.2-0.1
		C10.9,8.7,11.1,8.9,11.1,9.2z"/>
	<path class="st1" d="M8.6,11l0.1,0.3c-0.2-0.2-0.4-0.4-0.7-0.4h0c-0.2,0-0.4-0.2-0.4-0.4C7.5,10.2,7.7,10,8,10
		c0.2,0,0.4,0.2,0.4,0.4C8.4,10.6,8.5,10.8,8.6,11z"/>
	<circle class="st1" cx="11.9" cy="11.8" r="0.4"/>
	<path class="st1" d="M10.3,11.2c0,0.2-0.2,0.4-0.4,0.4l0,0h0l0.2-0.9C10.2,10.9,10.3,11.1,10.3,11.2z"/>
	<path class="st1" d="M13.7,11.8c0,0.2-0.1,0.3-0.2,0.4l-0.2-0.8C13.6,11.4,13.7,11.6,13.7,11.8z"/>
	<path class="st1" d="M14.6,11.4L14.6,11.4c-0.2-0.2-0.2-0.4,0-0.6l0,0c0.2-0.1,0.2-0.4,0.1-0.6c-0.1-0.2-0.4-0.2-0.6-0.1
		s-0.2,0.4-0.1,0.6c0,0,0.1,0.1,0.1,0.1l0,0c0.2,0.2,0.2,0.4,0,0.6l0,0c-0.2,0.1-0.2,0.4-0.1,0.6c0.1,0.2,0.4,0.2,0.6,0.1
		s0.2-0.4,0.1-0.6C14.7,11.5,14.7,11.4,14.6,11.4z"/>
	<path class="st1" d="M14.8,9.2c0,0.2-0.2,0.4-0.4,0.4l0,0h0h0c-0.4,0-0.9,0.4-0.9,0.8c0,0.2-0.1,0.3-0.3,0.4l0,0c0-0.1,0-0.1,0-0.2
		c0-0.2-0.1-0.4-0.1-0.6l0,0h0l0,0l0,0c0.4,0,0.9-0.4,0.9-0.8l0,0c0-0.2,0.2-0.4,0.5-0.4C14.6,8.7,14.8,8.9,14.8,9.2L14.8,9.2z"/>
	<path class="st1" d="M12.8,11.2c0,0,0,0.1,0,0.1l0,0.1c-0.2-0.3-0.5-0.5-0.8-0.5h0c-0.2,0-0.4-0.2-0.4-0.4c0-0.2,0.2-0.4,0.4-0.4
		c0.2,0,0.4,0.2,0.4,0.4C12.4,10.7,12.5,11,12.8,11.2z"/>
	<circle class="st1" cx="8" cy="15.4" r="0.4"/>
	<path class="st1" d="M9,12.8c0,0.1,0.1,0.3,0.1,0.5C9,13.2,9,13.1,9,13.1c-0.2-0.2-0.4-0.2-0.6,0c-0.1,0.2-0.4,0.2-0.6,0.1
		c-0.2-0.1-0.2-0.4-0.1-0.6s0.4-0.2,0.6-0.1c0,0,0.1,0.1,0.1,0.1c0.2,0.2,0.4,0.2,0.6,0c0,0,0,0,0,0C9,12.6,9,12.7,9,12.8z"/>
	<path class="st1" d="M9.8,12.8c0,0.2-0.1,0.3-0.3,0.4c0,0,0-0.1,0-0.1c0-0.2,0.1-0.3,0.1-0.5c0-0.1,0-0.1,0-0.2l0,0
		C9.7,12.6,9.8,12.7,9.8,12.8z"/>
	<path class="st1" d="M10.9,15L10.9,15c-0.2-0.2-0.2-0.4,0-0.6l0,0c0.2-0.1,0.2-0.4,0.1-0.6c-0.1-0.2-0.4-0.2-0.6-0.1
		c-0.2,0.1-0.2,0.4-0.1,0.6c0,0,0.1,0.1,0.1,0.1l0,0c0.2,0.2,0.2,0.4,0,0.6l0,0c-0.2,0.1-0.2,0.4-0.1,0.6c0.1,0.2,0.4,0.2,0.6,0.1
		c0.2-0.1,0.2-0.4,0.1-0.6C11,15.1,10.9,15.1,10.9,15z"/>
	<path class="st1" d="M11.1,12.8c0,0.2-0.2,0.4-0.4,0.4l0,0h0c-0.4,0-0.9,0.4-0.9,0.8c0,0.2-0.2,0.4-0.5,0.4c-0.2,0-0.4-0.2-0.4-0.5
		c0-0.2,0.1-0.4,0.3-0.4c0,0.1,0.1,0.3,0.1,0.4h0.1c0-0.1,0-0.3,0.1-0.4c0.4,0,0.8-0.4,0.8-0.8l0,0c0-0.2,0.2-0.4,0.4-0.4
		C10.9,12.4,11.1,12.6,11.1,12.8L11.1,12.8L11.1,12.8z"/>
	<path class="st1" d="M9.3,15L9.3,15c-0.5,0-0.9-0.4-0.9-0.8l0,0c0-0.2-0.2-0.4-0.5-0.4c-0.2,0-0.4,0.2-0.4,0.5
		c0,0.2,0.2,0.4,0.4,0.4h0c0.4,0,0.9,0.4,0.9,0.8l0,0c0,0.2,0.2,0.4,0.5,0.4c0.2,0,0.4-0.2,0.4-0.5C9.8,15.2,9.6,15,9.3,15L9.3,15z"
		/>
	<path class="st1" d="M11.7,15l-0.2,0.8c-0.2-0.1-0.3-0.4-0.2-0.6C11.4,15.1,11.5,15,11.7,15z"/>
	<path class="st1" d="M12.1,13C12.1,13.1,12.1,13.1,12.1,13c-0.2,0.2-0.5,0.3-0.7,0.1c-0.2-0.1-0.2-0.4-0.1-0.6s0.4-0.2,0.6-0.1
		c0,0,0.1,0.1,0.1,0.1c0,0,0.1,0.1,0.1,0.1l0,0L12.1,13z"/>
	<path class="st1" d="M14.8,15.4c0,0.2-0.2,0.4-0.4,0.4l0,0c0,0,0,0,0,0L14.1,15c0.2-0.2,0.2-0.4,0-0.5c0,0-0.1-0.1-0.1-0.1l0,0
		c-0.1-0.1-0.1-0.2-0.1-0.3c0,0,0,0,0-0.1l0,0c0-0.2,0.3-0.4,0.5-0.4c0.2,0,0.4,0.3,0.4,0.5c0,0.1-0.1,0.2-0.2,0.3l0,0
		c-0.2,0.2-0.2,0.4,0,0.6l0,0C14.7,15.1,14.8,15.3,14.8,15.4z"/>
	<path class="st1" d="M14.8,12.8c0,0.2-0.2,0.4-0.4,0.4l0,0h0h0c-0.2,0-0.4,0.1-0.5,0.2l0,0l0-0.2l0,0c0.1-0.1,0.2-0.3,0.2-0.5l0,0
		c0-0.2,0.2-0.4,0.5-0.4S14.8,12.6,14.8,12.8L14.8,12.8z"/>
	<path class="st1" d="M11.9,13.7l-0.2,0.8c0,0,0,0,0,0h0c-0.2,0-0.4-0.2-0.4-0.4c0-0.2,0.2-0.4,0.4-0.4
		C11.8,13.7,11.9,13.7,11.9,13.7L11.9,13.7z"/>
	<path class="st1" d="M9.3,16C9.2,16,9,16.1,9,16.2l0,0c-0.2,0.2-0.4,0.2-0.6,0l0,0C8.2,16,7.9,16,7.7,16.1
		c-0.2,0.1-0.2,0.4-0.1,0.6C7.8,16.9,8,17,8.2,16.8c0,0,0.1-0.1,0.1-0.1l0,0c0.2-0.2,0.4-0.2,0.6,0l0,0c0.1,0.2,0.4,0.2,0.6,0.1
		c0.2-0.1,0.2-0.4,0.1-0.6C9.6,16.1,9.5,16,9.3,16L9.3,16z"/>
	<path class="st1" d="M10.6,16c-0.2,0-0.4,0.2-0.4,0.4l0,0c0,0.4-0.4,0.9-0.9,0.8h0c-0.2,0-0.4,0.2-0.4,0.4c0,0.2,0.2,0.4,0.4,0.4
		c0.2,0,0.4-0.2,0.4-0.4l0,0c0-0.4,0.4-0.9,0.9-0.8h0c0.2,0,0.4-0.2,0.4-0.4C11.1,16.2,10.9,16,10.6,16L10.6,16z"/>
	<circle class="st1" cx="15.4" cy="11.8" r="0.4"/>
	<circle class="st1" cx="11.9" cy="8" r="0.4"/>
	<path class="st1" d="M18.3,11.4L18.3,11.4c-0.2-0.2-0.2-0.4,0-0.6l0,0c0.2-0.1,0.2-0.4,0.1-0.6C18.3,10,18,10,17.8,10.1
		s-0.2,0.4-0.1,0.6c0,0,0.1,0.1,0.1,0.1l0,0c0.2,0.2,0.2,0.4,0,0.6l0,0c-0.2,0.1-0.2,0.4-0.1,0.6c0.1,0.2,0.4,0.2,0.6,0.1
		s0.2-0.4,0.1-0.6C18.4,11.5,18.4,11.4,18.3,11.4z"/>
	<path class="st1" d="M18.5,9.2c0,0.2-0.2,0.4-0.4,0.4l0,0h0c-0.1,0-0.3,0-0.4,0.1l0.2-1l0,0c0.1,0,0.1,0,0.2,0
		C18.3,8.7,18.5,8.9,18.5,9.2z"/>
	<path class="st1" d="M16.1,11.2c-0.2-0.2-0.4-0.3-0.7-0.3h0c-0.2,0-0.4-0.2-0.4-0.4c0-0.2,0.2-0.4,0.4-0.4c0.2,0,0.4,0.2,0.4,0.4
		c0,0.2,0.1,0.3,0.2,0.4l0,0L16.1,11.2z"/>
	<circle class="st1" cx="19.1" cy="11.8" r="0.4"/>
	<path class="st1" d="M20.8,10l-0.2,1c0,0-0.1,0-0.1,0c-0.2,0-0.4-0.2-0.4-0.4c0-0.2,0.2-0.4,0.4-0.4h0l0,0C20.6,10,20.7,10,20.8,10
		z"/>
	<path class="st1" d="M20.5,11.3l-0.2,0.8c-0.1-0.1-0.2-0.2-0.2-0.4l0,0c0-0.4-0.4-0.9-0.9-0.8h0c-0.2,0-0.4-0.2-0.4-0.4
		c0-0.2,0.2-0.4,0.4-0.4c0.2,0,0.4,0.2,0.4,0.4C19.6,10.9,20,11.3,20.5,11.3L20.5,11.3C20.4,11.3,20.4,11.3,20.5,11.3L20.5,11.3z"/>
	<circle class="st1" cx="15.4" cy="15.4" r="0.4"/>
	<path class="st1" d="M16.4,12.8c0,0.1,0,0.3,0.1,0.4c0,0-0.1-0.1-0.1-0.1c-0.2-0.2-0.4-0.2-0.6,0c-0.1,0.2-0.4,0.2-0.6,0.1
		c-0.2-0.1-0.2-0.4-0.1-0.6c0.1-0.2,0.4-0.2,0.6-0.1c0,0,0.1,0.1,0.1,0.1c0.2,0.2,0.4,0.2,0.6,0l0,0C16.4,12.6,16.4,12.7,16.4,12.8z
		"/>
	<path class="st1" d="M17.2,12.8c0,0.2-0.1,0.3-0.3,0.4c0,0,0-0.1,0-0.1c0-0.2,0.1-0.3,0.1-0.5c0-0.1,0-0.1,0-0.2
		C17.1,12.6,17.2,12.7,17.2,12.8z"/>
	<path class="st1" d="M18.3,15L18.3,15c-0.2-0.2-0.2-0.4,0-0.6l0,0c0.2-0.1,0.2-0.4,0.1-0.6c-0.1-0.2-0.4-0.2-0.6-0.1
		c-0.2,0.1-0.2,0.4-0.1,0.6c0,0,0.1,0.1,0.1,0.1l0,0c0.2,0.2,0.2,0.4,0,0.6l0,0c-0.2,0.1-0.2,0.4-0.1,0.6c0.1,0.2,0.4,0.2,0.6,0.1
		c0.2-0.1,0.2-0.4,0.1-0.6C18.4,15.1,18.4,15.1,18.3,15z"/>
	<path class="st1" d="M18.5,12.8c0,0.2-0.2,0.4-0.4,0.4l0,0h0c-0.4,0-0.9,0.4-0.9,0.8c0,0.2-0.2,0.4-0.5,0.4c-0.2,0-0.4-0.2-0.4-0.5
		c0-0.2,0.1-0.4,0.3-0.4c0,0.1,0.1,0.3,0.1,0.4h0.1c0-0.1,0.1-0.3,0.1-0.4c0.4,0,0.8-0.4,0.8-0.8l0,0c0-0.2,0.2-0.4,0.4-0.4
		C18.3,12.4,18.5,12.6,18.5,12.8L18.5,12.8L18.5,12.8z"/>
	<path class="st1" d="M16.7,15L16.7,15c-0.5,0-0.9-0.4-0.9-0.8l0,0c0-0.2-0.2-0.4-0.5-0.4c-0.2,0-0.4,0.2-0.4,0.5
		c0,0.2,0.2,0.4,0.4,0.4h0c0.4,0,0.9,0.4,0.9,0.8l0,0c0,0.2,0.2,0.4,0.5,0.4c0.2,0,0.4-0.2,0.4-0.5C17.2,15.2,17,15,16.7,15L16.7,15
		z"/>
	<path class="st1" d="M19.5,15.2l-0.2,0.6c-0.1,0-0.1,0.1-0.2,0c-0.2,0-0.4-0.2-0.4-0.4s0.2-0.4,0.4-0.4C19.3,15,19.4,15,19.5,15.2
		L19.5,15.2z"/>
	<path class="st1" d="M18.9,17.3L18.9,17.3L18.8,18l0,0.1c-0.2-0.1-0.4-0.3-0.3-0.5c0.1-0.2,0.2-0.3,0.4-0.3
		C18.9,17.3,18.9,17.3,18.9,17.3z"/>
	<path class="st1" d="M20.2,12.5L20,13c-0.2-0.2-0.4-0.1-0.5,0.1c-0.1,0.2-0.4,0.2-0.6,0.1c-0.2-0.1-0.2-0.4-0.1-0.6
		c0.1-0.2,0.4-0.2,0.6-0.1c0,0,0.1,0.1,0.1,0.1C19.7,12.8,19.9,12.8,20.2,12.5C20.1,12.5,20.1,12.5,20.2,12.5z"/>
	<path class="st1" d="M19.7,14.5L19.7,14.5l-0.1,0.2c-0.1-0.1-0.3-0.1-0.5-0.1h0c-0.2,0-0.4-0.2-0.4-0.4c0-0.2,0.2-0.4,0.4-0.4
		c0.2,0,0.4,0.2,0.4,0.4C19.6,14.2,19.6,14.4,19.7,14.5z"/>
	<path class="st1" d="M16.7,16c-0.1,0-0.3,0.1-0.4,0.2l0,0c-0.2,0.2-0.4,0.2-0.6,0l0,0c-0.1-0.2-0.4-0.2-0.6-0.1
		c-0.2,0.1-0.2,0.4-0.1,0.6s0.4,0.2,0.6,0.1c0,0,0.1-0.1,0.1-0.1l0,0c0.2-0.2,0.4-0.2,0.6,0l0,0c0.1,0.2,0.4,0.2,0.6,0.1
		c0.2-0.1,0.2-0.4,0.1-0.6C17,16.1,16.9,16,16.7,16L16.7,16z"/>
	<path class="st1" d="M17.9,16c-0.2,0-0.4,0.2-0.4,0.4l0,0c0,0.4-0.4,0.9-0.9,0.8h0c-0.2,0-0.4,0.2-0.4,0.4c0,0.2,0.2,0.4,0.4,0.4
		c0.2,0,0.4-0.2,0.4-0.4l0,0c0-0.4,0.4-0.9,0.9-0.8h0c0.2,0,0.4-0.2,0.4-0.4C18.4,16.2,18.2,16,17.9,16L17.9,16z"/>
	<path class="st1" d="M19.3,16.1L19,16.9c-0.2,0-0.4-0.3-0.4-0.5C18.7,16.2,18.9,16,19.3,16.1C19.2,16,19.2,16.1,19.3,16.1
		L19.3,16.1z"/>
	<path class="st1" d="M7.2,18.1L7.2,18.1c-0.1,0-0.1,0.1-0.2,0.2l-0.2-1c0,0,0.1,0,0.1,0c0.2,0,0.4,0.2,0.4,0.4
		C7.4,17.9,7.3,18,7.2,18.1L7.2,18.1z"/>
	<path class="st1" d="M7.4,16.5c0,0.2-0.2,0.4-0.4,0.4h0h0c-0.1,0-0.1,0-0.2,0l-0.2-0.7c0.1-0.2,0.4-0.3,0.6-0.2
		C7.3,16.2,7.4,16.3,7.4,16.5L7.4,16.5z"/>
	<path class="st1" d="M9.3,16C9.2,16,9,16.1,9,16.2l0,0c-0.2,0.2-0.4,0.2-0.6,0l0,0C8.2,16,7.9,16,7.7,16.1
		c-0.2,0.1-0.2,0.4-0.1,0.6C7.8,16.9,8,17,8.2,16.8c0,0,0.1-0.1,0.1-0.1l0,0c0.2-0.2,0.4-0.2,0.6,0l0,0c0.1,0.2,0.4,0.2,0.6,0.1
		c0.2-0.1,0.2-0.4,0.1-0.6C9.6,16.1,9.5,16,9.3,16L9.3,16z"/>
	<path class="st1" d="M11,17.7l-0.1,0.7c0,0,0,0,0,0h-0.4c0,0-0.1-0.1-0.1-0.1c-0.2-0.1-0.2-0.4-0.1-0.6c0.1-0.2,0.4-0.2,0.6-0.1
		C11,17.6,11,17.7,11,17.7L11,17.7z"/>
	<path class="st1" d="M8.7,18.4H8.5c-0.1-0.1-0.3-0.2-0.5-0.2h0c-0.2,0-0.4-0.2-0.4-0.4c0-0.2,0.2-0.4,0.4-0.4
		c0.2,0,0.4,0.2,0.4,0.4C8.4,18,8.6,18.2,8.7,18.4z"/>
	<path class="st1" d="M14.9,16.9c0,0.2-0.1,0.3-0.2,0.4l-0.1-0.4l-0.1-0.5C14.7,16.4,14.9,16.6,14.9,16.9z"/>
	<path class="st1" d="M16.7,16c-0.1,0-0.3,0.1-0.4,0.2l0,0c-0.2,0.2-0.4,0.2-0.6,0l0,0c-0.1-0.2-0.4-0.2-0.6-0.1
		c-0.2,0.1-0.2,0.4-0.1,0.6s0.4,0.2,0.6,0.1c0,0,0.1-0.1,0.1-0.1l0,0c0.2-0.2,0.4-0.2,0.6,0l0,0c0.1,0.2,0.4,0.2,0.6,0.1
		c0.2-0.1,0.2-0.4,0.1-0.6C17,16.1,16.9,16,16.7,16L16.7,16z"/>
	<path class="st1" d="M18.1,18.1L18.1,18.1c-0.1,0.1-0.2,0.2-0.2,0.3h-0.2c0-0.1-0.1-0.2-0.2-0.3c-0.2-0.1-0.2-0.4-0.1-0.6
		c0.1-0.2,0.4-0.2,0.6-0.1C18.3,17.6,18.4,17.8,18.1,18.1C18.2,18.1,18.1,18.1,18.1,18.1L18.1,18.1z"/>
	<path class="st1" d="M16.1,18.4h-0.2c-0.1-0.1-0.3-0.2-0.5-0.2h0c-0.2,0-0.4-0.2-0.4-0.4c0-0.2,0.2-0.4,0.4-0.4
		c0.2,0,0.4,0.2,0.4,0.4C15.8,18,15.9,18.2,16.1,18.4z"/>
	<path class="st1" d="M19.3,16.1L19,16.9c-0.2,0-0.4-0.3-0.4-0.5C18.7,16.2,18.9,16,19.3,16.1C19.2,16,19.2,16.1,19.3,16.1
		L19.3,16.1z"/>
	<path class="st1" d="M21.6,6.7l-0.1,0.4l-0.1,0.4c-0.2-0.1-0.4-0.3-0.3-0.5c0-0.2,0.2-0.3,0.4-0.3C21.5,6.7,21.6,6.7,21.6,6.7z"/>
	<path class="st1" d="M25.8,7.8L25.8,7.8c-0.2-0.2-0.2-0.4,0-0.6l0,0c0.2-0.1,0.2-0.4,0.1-0.6s-0.4-0.2-0.6-0.1
		c-0.2,0.1-0.2,0.4-0.1,0.6c0,0,0.1,0.1,0.1,0.1l0,0c0.2,0.2,0.2,0.4,0,0.6l0,0c-0.2,0.1-0.2,0.4-0.1,0.6c0.1,0.2,0.4,0.2,0.6,0.1
		S26.1,8.1,25.8,7.8C25.9,7.8,25.9,7.8,25.8,7.8z"/>
	<path class="st1" d="M34.3,6.1c-0.2,0.2-0.5,0.1-0.6,0c-0.1-0.1-0.1-0.2-0.1-0.3c0,0,0,0,0,0c0,0,0,0,0.1,0C33.8,5.8,34,5.9,34.2,6
		C34.2,6,34.2,6,34.3,6.1C34.3,6.1,34.3,6.1,34.3,6.1z"/>
	<path class="st1" d="M26,5.6C26,5.8,25.8,6,25.6,6h0l0,0c-0.2,0-0.3,0-0.4,0.1V5.6l0,0c0,0,0,0,0,0L26,5.6C26,5.5,26,5.5,26,5.6z"
		/>
	<path class="st1" d="M25.1,9.8c0.1-0.1,0.3-0.1,0.4-0.1l0,0h0c0.2,0,0.4-0.2,0.4-0.4c0-0.2-0.2-0.4-0.4-0.4c-0.2,0-0.4,0.2-0.4,0.4
		l0,0V9.8z"/>
	<circle class="st1" cx="26.6" cy="8.1" r="0.4"/>
	<path class="st1" d="M28.4,5.6C28.4,5.8,28.2,6,28,6c-0.1,0-0.3-0.1-0.4-0.2c-0.2-0.2-0.4-0.2-0.6,0c-0.1,0.2-0.4,0.2-0.6,0.1
		c-0.1-0.1-0.2-0.2-0.2-0.4c0,0,0,0,0-0.1L28.4,5.6C28.4,5.5,28.4,5.5,28.4,5.6z"/>
	<path class="st1" d="M29.7,8.1l-0.9,0c0-0.1,0.1-0.3,0.2-0.3l0,0c0.2-0.2,0.2-0.4,0-0.6l0,0c-0.2-0.1-0.2-0.4-0.1-0.6
		c0.1-0.2,0.4-0.2,0.6-0.1c0.2,0.1,0.2,0.4,0.1,0.6c0,0-0.1,0.1-0.1,0.1c-0.2,0.2-0.2,0.4,0,0.6C29.7,7.9,29.7,8,29.7,8.1z"/>
	<path class="st1" d="M29.7,5.6c0,0.2-0.2,0.4-0.4,0.4h0l0,0c-0.4,0-0.9,0.4-0.9,0.8c0,0.2-0.2,0.4-0.5,0.4c-0.2,0-0.4-0.2-0.4-0.5
		c0-0.2,0.2-0.4,0.4-0.4h0c0.4,0,0.9-0.4,0.9-0.8l0,0c0,0,0,0,0,0L29.7,5.6C29.7,5.5,29.7,5.5,29.7,5.6z"/>
	<path class="st1" d="M28,7.7L28,7.7c-0.5,0-0.9-0.4-0.9-0.8l0,0c0-0.2-0.2-0.4-0.5-0.4c-0.2,0-0.4,0.2-0.4,0.5
		c0,0.2,0.2,0.4,0.4,0.4h0c0.4,0,0.9,0.4,0.9,0.8l0,0c0,0.2,0.2,0.4,0.5,0.4c0.2,0,0.4-0.2,0.4-0.5C28.4,7.9,28.2,7.7,28,7.7L28,7.7
		z"/>
	<path class="st1" d="M30.8,8.1l-0.9,0c0-0.2,0.2-0.4,0.5-0.4C30.6,7.7,30.8,7.9,30.8,8.1z"/>
	<path class="st1" d="M32.1,5.6c0,0.2-0.2,0.4-0.4,0.4c-0.1,0-0.3-0.1-0.4-0.2c-0.2-0.2-0.4-0.2-0.6,0c-0.1,0.2-0.4,0.2-0.6,0.1
		c-0.1-0.1-0.2-0.2-0.2-0.4c0,0,0,0,0,0l2.1,0C32,5.5,32.1,5.5,32.1,5.6C32.1,5.5,32.1,5.5,32.1,5.6z"/>
	<path class="st1" d="M33.3,7.8L33.3,7.8c-0.2-0.2-0.2-0.4,0-0.6l0,0c0.2-0.1,0.2-0.4,0.1-0.6c-0.1-0.2-0.4-0.2-0.6-0.1
		c-0.2,0.1-0.2,0.4-0.1,0.6c0,0,0.1,0.1,0.1,0.1l0,0c0.2,0.2,0.2,0.4,0,0.6l0,0c-0.2,0.1-0.2,0.4-0.1,0.6c0.1,0.2,0.4,0.2,0.6,0.1
		C33.5,8.4,33.5,8.1,33.3,7.8C33.3,7.8,33.3,7.8,33.3,7.8L33.3,7.8z"/>
	<path class="st1" d="M33.4,5.7C33.4,5.9,33.2,6,33,6h0l0,0c-0.4,0-0.9,0.4-0.9,0.8c0,0.2-0.2,0.4-0.5,0.4c-0.2,0-0.4-0.2-0.4-0.5
		c0-0.2,0.2-0.4,0.4-0.4h0c0.4,0,0.9-0.4,0.9-0.8l0,0c0,0,0,0,0,0C32.9,5.6,33.1,5.6,33.4,5.7z"/>
	<path class="st1" d="M32.1,8.1c0,0.1,0,0.1,0,0.2l0,0c-0.2-0.1-0.5-0.2-0.8-0.2c0-0.4-0.4-0.8-0.9-0.8h0c-0.2,0-0.4-0.2-0.4-0.4
		c0-0.2,0.2-0.4,0.4-0.4c0.2,0,0.4,0.2,0.4,0.4c0,0.4,0.4,0.9,0.9,0.8l0,0h0C31.9,7.7,32.1,7.9,32.1,8.1z"/>
	<path class="st1" d="M28,8.8c-0.1,0-0.3,0.1-0.4,0.2l0,0c-0.2,0.2-0.4,0.2-0.6,0l0,0c-0.1-0.2-0.4-0.2-0.6-0.1
		c-0.2,0.1-0.2,0.4-0.1,0.6c0.1,0.2,0.4,0.2,0.6,0.1c0,0,0.1-0.1,0.1-0.1l0,0c0.2-0.2,0.4-0.2,0.6,0l0,0c0.1,0.2,0.4,0.2,0.6,0.1
		c0.2-0.1,0.2-0.4,0.1-0.6C28.2,8.8,28.1,8.8,28,8.8z"/>
	<path class="st1" d="M28.5,9.9v0.3c-0.1,0.1-0.1,0.2-0.1,0.3c0,0.2-0.2,0.4-0.5,0.4c-0.2,0-0.4-0.2-0.4-0.5c0-0.2,0.2-0.4,0.4-0.4
		h0C28.2,10.1,28.3,10,28.5,9.9z"/>
	<path class="st1" d="M33.4,9.2c0,0.2-0.2,0.4-0.4,0.4h0l0,0c-0.1,0-0.2,0-0.2,0c0-0.2,0-0.5-0.1-0.7c0.1-0.2,0.4-0.3,0.6-0.1
		C33.4,8.9,33.4,9.1,33.4,9.2L33.4,9.2z"/>
	<circle class="st1" cx="34.1" cy="8.1" r="0.4"/>
	<path class="st1" d="M35.5,7.3c0,0-0.1,0-0.1,0c-0.2,0-0.4-0.2-0.4-0.4c0-0.1,0-0.2,0.1-0.2C35.2,6.8,35.4,7,35.5,7.3z"/>
	<path class="st1" d="M35.4,7.7L35.4,7.7c-0.5,0-0.9-0.4-0.9-0.8l0,0c0-0.2-0.2-0.4-0.5-0.4c-0.2,0-0.4,0.2-0.4,0.5
		c0,0.2,0.2,0.4,0.4,0.4h0c0.4,0,0.9,0.4,0.9,0.8l0,0c0,0.2,0.2,0.4,0.5,0.4c0.2,0,0.4-0.2,0.4-0.5C35.8,7.9,35.6,7.7,35.4,7.7
		L35.4,7.7z"/>
	<path class="st1" d="M35.4,8.8c-0.1,0-0.3,0.1-0.4,0.2l0,0c-0.2,0.2-0.4,0.2-0.6,0l0,0c-0.1-0.2-0.4-0.2-0.6-0.1
		c-0.2,0.1-0.2,0.4-0.1,0.6s0.4,0.2,0.6,0.1c0,0,0.1-0.1,0.1-0.1l0,0c0.2-0.2,0.4-0.2,0.6,0l0,0c0.1,0.2,0.4,0.2,0.6,0.1
		c0.2-0.1,0.2-0.4,0.1-0.6C35.7,8.8,35.5,8.8,35.4,8.8z"/>
	<path class="st1" d="M36.2,9.8C36.2,9.8,36.2,9.8,36.2,9.8c-0.2,0.3-0.3,0.5-0.3,0.8c0,0.2-0.2,0.4-0.5,0.4c-0.2,0-0.4-0.2-0.4-0.5
		c0-0.2,0.2-0.4,0.4-0.4h0c0.3,0,0.6-0.2,0.8-0.5C36.2,9.6,36.2,9.7,36.2,9.8z"/>
	<path class="st1" d="M25.8,11.4L25.8,11.4c-0.2-0.2-0.2-0.4,0-0.6l0,0c0.2-0.1,0.2-0.4,0.1-0.6c-0.1-0.2-0.4-0.2-0.6-0.1
		c-0.2,0.1-0.2,0.4-0.1,0.6c0,0,0.1,0.1,0.1,0.1l0,0c0.2,0.2,0.2,0.4,0,0.6l0,0c-0.2,0.1-0.2,0.4-0.1,0.6s0.4,0.2,0.6,0.1
		C26,12,26.1,11.7,25.8,11.4C25.9,11.5,25.9,11.5,25.8,11.4L25.8,11.4z"/>
	<path class="st1" d="M25.1,9.8c0.1-0.1,0.3-0.1,0.4-0.1l0,0h0c0.2,0,0.4-0.2,0.4-0.4c0-0.2-0.2-0.4-0.4-0.4c-0.2,0-0.4,0.2-0.4,0.4
		l0,0V9.8z"/>
	<path class="st1" d="M25.8,15.1L25.8,15.1c-0.2-0.2-0.2-0.4,0-0.6l0,0c0.2-0.1,0.2-0.4,0.1-0.6s-0.4-0.2-0.6-0.1
		c-0.2,0.1-0.2,0.4-0.1,0.6c0,0,0.1,0.1,0.1,0.1l0,0c0.2,0.2,0.2,0.4,0,0.6l0,0c-0.2,0.1-0.2,0.4-0.1,0.6c0.1,0.2,0.4,0.2,0.6,0.1
		C26,15.7,26.1,15.4,25.8,15.1C25.9,15.1,25.9,15.1,25.8,15.1z"/>
	<path class="st1" d="M26,12.9c0,0.2-0.2,0.4-0.4,0.4l0,0h0l0,0c-0.2,0-0.3,0-0.4,0.1v-0.6l0,0c0-0.2,0.2-0.4,0.5-0.4
		C25.8,12.4,26,12.6,26,12.9z"/>
	<path class="st1" d="M26,16.5c0,0.2-0.2,0.4-0.4,0.4l0,0h0l0,0c-0.2,0-0.3,0-0.4,0.1v-0.6l0,0c0-0.2,0.2-0.4,0.5-0.4
		C25.8,16.1,26,16.3,26,16.5L26,16.5z"/>
	<circle class="st1" cx="26.6" cy="11.8" r="0.4"/>
	<path class="st1" d="M28,8.8c-0.1,0-0.3,0.1-0.4,0.2l0,0c-0.2,0.2-0.4,0.2-0.6,0l0,0c-0.1-0.2-0.4-0.2-0.6-0.1
		c-0.2,0.1-0.2,0.4-0.1,0.6c0.1,0.2,0.4,0.2,0.6,0.1c0,0,0.1-0.1,0.1-0.1l0,0c0.2-0.2,0.4-0.2,0.6,0l0,0c0.1,0.2,0.4,0.2,0.6,0.1
		c0.2-0.1,0.2-0.4,0.1-0.6C28.2,8.8,28.1,8.8,28,8.8z"/>
	<path class="st1" d="M29.7,11.8c0,0.2-0.2,0.4-0.4,0.4c-0.2,0-0.4-0.2-0.4-0.4c0-0.1,0.1-0.2,0.1-0.3l0.6,0
		C29.7,11.5,29.7,11.7,29.7,11.8z"/>
	<path class="st1" d="M28.5,9.9v0.3c-0.1,0.1-0.1,0.2-0.1,0.3c0,0.2-0.2,0.4-0.5,0.4c-0.2,0-0.4-0.2-0.4-0.5c0-0.2,0.2-0.4,0.4-0.4
		h0C28.2,10.1,28.3,10,28.5,9.9z"/>
	<path class="st1" d="M28,11.3L28,11.3c-0.5,0-0.9-0.4-0.9-0.8l0,0c0-0.2-0.2-0.4-0.5-0.4c-0.2,0-0.4,0.2-0.4,0.5
		c0,0.2,0.2,0.4,0.4,0.4h0c0.4,0,0.9,0.4,0.9,0.8l0,0c0,0.2,0.2,0.4,0.5,0.4c0.2,0,0.4-0.2,0.4-0.5C28.4,11.5,28.2,11.3,28,11.3
		L28,11.3z"/>
	<path class="st1" d="M30.6,11.5c0.2,0.2,0.2,0.5,0,0.6s-0.5,0.2-0.6,0s-0.2-0.5,0-0.6c0,0,0,0,0,0L30.6,11.5z"/>
	<path class="st1" d="M33.3,11.4L33.3,11.4c-0.2-0.2-0.2-0.4,0-0.6l0,0c0.2-0.1,0.2-0.4,0.1-0.6c-0.1-0.2-0.4-0.2-0.6-0.1
		c-0.2,0.1-0.2,0.4-0.1,0.6c0,0,0.1,0.1,0.1,0.1l0,0c0.2,0.2,0.2,0.4,0,0.6l0,0c-0.2,0.1-0.2,0.4-0.1,0.6c0.1,0.2,0.4,0.2,0.6,0.1
		c0.2-0.1,0.2-0.4,0.1-0.6C33.3,11.5,33.3,11.5,33.3,11.4L33.3,11.4z"/>
	<path class="st1" d="M33.4,9.2c0,0.2-0.2,0.4-0.4,0.4h0l0,0c-0.1,0-0.2,0-0.2,0c0-0.2,0-0.5-0.1-0.7c0.1-0.2,0.4-0.3,0.6-0.1
		C33.4,8.9,33.4,9.1,33.4,9.2L33.4,9.2z"/>
	<path class="st1" d="M32.1,11.8c0,0.2-0.2,0.4-0.4,0.5c-0.2,0-0.4-0.2-0.5-0.4l0,0c0-0.1,0-0.2-0.1-0.3h0c0.2,0,0.4,0,0.7-0.1l0,0
		C32,11.4,32.1,11.6,32.1,11.8z"/>
	<circle class="st1" cx="26.6" cy="15.4" r="0.4"/>
	<path class="st1" d="M28,12.4c-0.1,0-0.3,0.1-0.4,0.2l0,0c-0.2,0.2-0.4,0.2-0.6,0l0,0c-0.1-0.2-0.4-0.2-0.6-0.1
		c-0.2,0.1-0.2,0.4-0.1,0.6c0.1,0.2,0.4,0.2,0.6,0.1c0,0,0.1-0.1,0.1-0.1l0,0c0.2-0.2,0.4-0.2,0.6,0l0,0c0.1,0.2,0.4,0.2,0.6,0.1
		c0.2-0.1,0.2-0.4,0.1-0.6C28.2,12.5,28.1,12.4,28,12.4z"/>
	<path class="st1" d="M29.7,14l-0.9,0c0.1-0.2,0.3-0.4,0.5-0.3C29.6,13.8,29.7,13.9,29.7,14z"/>
	<path class="st1" d="M29.3,12.4c-0.2,0-0.4,0.2-0.4,0.4l0,0c0,0.4-0.4,0.9-0.9,0.8h0c-0.2,0-0.4,0.2-0.4,0.4c0,0.2,0.2,0.4,0.4,0.4
		c0.2,0,0.4-0.2,0.4-0.4l0,0c0-0.4,0.4-0.9,0.9-0.8h0c0.2,0,0.4-0.2,0.4-0.4C29.7,12.6,29.5,12.4,29.3,12.4L29.3,12.4z"/>
	<path class="st1" d="M28,15L28,15c-0.5,0-0.9-0.4-0.9-0.8l0,0c0-0.2-0.2-0.4-0.5-0.4c-0.2,0-0.4,0.2-0.4,0.5c0,0.2,0.2,0.4,0.4,0.4
		h0c0.4,0,0.9,0.4,0.9,0.8l0,0c0,0.2,0.2,0.4,0.5,0.4c0.2,0,0.4-0.2,0.4-0.5C28.5,15.2,28.3,15,28,15L28,15z"/>
	<path class="st1" d="M31.7,12.4c-0.1,0-0.3,0.1-0.4,0.2l0,0c-0.2,0.2-0.4,0.2-0.6,0l0,0c-0.1-0.2-0.4-0.2-0.6-0.1s-0.2,0.4-0.1,0.6
		c0.1,0.2,0.4,0.2,0.6,0.1c0,0,0.1-0.1,0.1-0.1l0,0c0.2-0.2,0.4-0.2,0.6,0l0,0c0.1,0.2,0.4,0.2,0.6,0.1c0.2-0.1,0.2-0.4,0.1-0.6
		C31.9,12.5,31.8,12.4,31.7,12.4z"/>
	<path class="st1" d="M33.7,13.7c-0.3,0.1-0.6,0.2-0.8,0.2c0-0.1,0-0.1,0-0.2c0-0.2,0.2-0.4,0.5-0.4C33.5,13.4,33.7,13.5,33.7,13.7z
		"/>
	<path class="st1" d="M33.3,12.9c0,0.2-0.2,0.4-0.4,0.4l0,0h0l0,0c-0.4,0-0.8,0.3-0.9,0.7c0,0,0,0-0.1,0l-0.8,0
		c0-0.2,0.2-0.3,0.4-0.3h0c0.4,0,0.9-0.4,0.9-0.8l0,0c0-0.2,0.2-0.4,0.5-0.4C33.1,12.4,33.3,12.6,33.3,12.9L33.3,12.9z"/>
	<path class="st1" d="M30.8,14l-0.9,0c0.1-0.2,0.3-0.4,0.5-0.3C30.6,13.8,30.7,13.9,30.8,14z"/>
	<path class="st1" d="M28,16.1c-0.1,0-0.3,0.1-0.4,0.2l0,0c-0.2,0.2-0.4,0.2-0.6,0l0,0c-0.1-0.2-0.4-0.2-0.6-0.1s-0.2,0.4-0.1,0.6
		c0.1,0.2,0.4,0.2,0.6,0.1c0,0,0.1-0.1,0.1-0.1l0,0c0.2-0.2,0.4-0.2,0.6,0l0,0c0.1,0.2,0.4,0.2,0.6,0.1c0.2-0.1,0.2-0.4,0.1-0.6
		C28.3,16.1,28.2,16.1,28,16.1z"/>
	<path class="st1" d="M28.5,17.2v0.3c-0.1,0.1-0.1,0.2-0.1,0.3c0,0.2-0.2,0.4-0.5,0.4c-0.2,0-0.4-0.2-0.4-0.5c0-0.2,0.2-0.4,0.4-0.4
		h0l0,0C28.2,17.3,28.3,17.3,28.5,17.2z"/>
	<circle class="st1" cx="34.1" cy="11.8" r="0.4"/>
	<path class="st1" d="M35.4,8.8c-0.1,0-0.3,0.1-0.4,0.2l0,0c-0.2,0.2-0.4,0.2-0.6,0l0,0c-0.1-0.2-0.4-0.2-0.6-0.1
		c-0.2,0.1-0.2,0.4-0.1,0.6s0.4,0.2,0.6,0.1c0,0,0.1-0.1,0.1-0.1l0,0c0.2-0.2,0.4-0.2,0.6,0l0,0c0.1,0.2,0.4,0.2,0.6,0.1
		c0.2-0.1,0.2-0.4,0.1-0.6C35.7,8.8,35.5,8.8,35.4,8.8z"/>
	<path class="st1" d="M36.2,9.8C36.2,9.8,36.2,9.8,36.2,9.8c-0.2,0.3-0.3,0.5-0.3,0.8c0,0.2-0.2,0.4-0.5,0.4c-0.2,0-0.4-0.2-0.4-0.5
		c0-0.2,0.2-0.4,0.4-0.4h0c0.3,0,0.6-0.2,0.8-0.5C36.2,9.6,36.2,9.7,36.2,9.8z"/>
	<path class="st1" d="M35.8,11.7L35.8,11.7c0,0.1-0.1,0.2-0.2,0.3c0,0.1-0.1,0.1-0.1,0.2c-0.1,0-0.1,0-0.2,0c-0.2,0-0.4-0.2-0.4-0.4
		c0-0.4-0.4-0.8-0.9-0.8h0c-0.2,0-0.4-0.2-0.4-0.4c0-0.2,0.2-0.4,0.4-0.4c0.2,0,0.4,0.2,0.4,0.4c0,0.4,0.4,0.9,0.9,0.8l0,0h0
		C35.6,11.3,35.8,11.5,35.8,11.7z"/>
	<path class="st1" d="M35.4,12.4c-0.1,0.2-0.3,0.4-0.5,0.6c-0.2-0.1-0.4-0.1-0.5,0.1c-0.1,0.2-0.4,0.2-0.6,0.1
		c-0.2-0.1-0.2-0.4-0.1-0.6c0.1-0.2,0.4-0.2,0.6-0.1c0,0,0.1,0.1,0.1,0.1c0.2,0.2,0.4,0.2,0.6,0C35.1,12.5,35.2,12.4,35.4,12.4
		C35.4,12.4,35.4,12.4,35.4,12.4z"/>
	<path class="st1" d="M26,17.8c0,0.1-0.1,0.3-0.2,0.4c-0.1,0.1-0.1,0.1-0.2,0.2h-0.2c0-0.1-0.1-0.2-0.2-0.2l0,0
		c-0.2-0.1-0.2-0.4-0.1-0.6c0.1-0.2,0.4-0.2,0.6-0.1C26,17.5,26,17.7,26,17.8L26,17.8z"/>
	<path class="st1" d="M26,16.5c0,0.2-0.2,0.4-0.4,0.4l0,0h0l0,0c-0.2,0-0.3,0-0.4,0.1v-0.6l0,0c0-0.2,0.2-0.4,0.5-0.4
		C25.8,16.1,26,16.3,26,16.5L26,16.5z"/>
	<path class="st1" d="M27.4,18.4h-0.2c-0.1-0.1-0.3-0.1-0.5-0.1h0c-0.2,0-0.4-0.2-0.4-0.4c0-0.2,0.2-0.4,0.4-0.4
		c0.2,0,0.4,0.2,0.4,0.4C27.1,18,27.2,18.2,27.4,18.4z"/>
	<path class="st1" d="M9.3,21.6c0,0.2-0.2,0.4-0.4,0.4c-0.1,0-0.3-0.1-0.4-0.2c-0.2-0.2-0.4-0.2-0.6,0c-0.1,0.2-0.4,0.2-0.6,0.1
		C7.1,21.9,7,21.8,7,21.6H9.3z"/>
	<path class="st1" d="M10.6,21.6c0,0.2-0.2,0.4-0.4,0.4l0,0h0l0,0c-0.4,0-0.9,0.4-0.9,0.8l0,0c0,0.2-0.2,0.4-0.5,0.4
		c-0.2,0-0.4-0.2-0.4-0.5c0-0.2,0.2-0.4,0.4-0.4h0c0.4,0,0.9-0.4,0.9-0.8L10.6,21.6z"/>
	<path class="st1" d="M13,21.6c0,0.2-0.2,0.4-0.4,0.4c-0.1,0-0.3-0.1-0.4-0.2c-0.2-0.2-0.4-0.2-0.6,0c-0.1,0.2-0.4,0.2-0.6,0.1
		c-0.1-0.1-0.2-0.2-0.2-0.4H13z"/>
	<path class="st1" d="M14.3,21.6c0,0.2-0.2,0.4-0.4,0.4l0,0h0l0,0c-0.4,0-0.9,0.4-0.9,0.8l0,0c0,0.2-0.2,0.4-0.5,0.4
		c-0.2,0-0.4-0.2-0.4-0.5c0-0.2,0.2-0.4,0.4-0.4h0c0.4,0,0.9-0.4,0.9-0.8L14.3,21.6z"/>
	<path class="st1" d="M16.7,21.6c0,0.2-0.2,0.4-0.4,0.4c-0.1,0-0.3-0.1-0.4-0.2c-0.2-0.2-0.4-0.2-0.6,0c-0.1,0.2-0.4,0.2-0.6,0.1
		c-0.1-0.1-0.2-0.2-0.2-0.4H16.7z"/>
	<path class="st1" d="M17.7,21.6V22c0,0-0.1,0-0.1,0h0l0,0c-0.4,0-0.9,0.4-0.9,0.8l0,0c0,0.2-0.2,0.4-0.5,0.4
		c-0.2,0-0.4-0.2-0.4-0.5c0-0.2,0.2-0.4,0.4-0.4h0c0.4,0,0.9-0.4,0.9-0.8L17.7,21.6z"/>
	<circle class="st1" cx="7.5" cy="24.2" r="0.4"/>
	<path class="st1" d="M9.3,21.6c0,0.2-0.2,0.4-0.4,0.4c-0.1,0-0.3-0.1-0.4-0.2c-0.2-0.2-0.4-0.2-0.6,0c-0.1,0.2-0.4,0.2-0.6,0.1
		C7.1,21.9,7,21.8,7,21.6H9.3z"/>
	<path class="st1" d="M10.6,24.2C10.6,24.2,10.6,24.2,10.6,24.2l-0.2,0.1v0.3c-0.2,0.1-0.5,0.1-0.6-0.1c-0.1-0.2-0.1-0.5,0.1-0.6
		c0.2-0.2,0.2-0.4,0-0.6c-0.2-0.1-0.2-0.4-0.1-0.6c0.1-0.2,0.4-0.2,0.6-0.1c0.2,0.1,0.2,0.4,0.1,0.6c0,0-0.1,0.1-0.1,0.1
		c-0.2,0.2-0.2,0.4,0,0.6C10.5,23.9,10.6,24,10.6,24.2z"/>
	<path class="st1" d="M10.6,21.6c0,0.2-0.2,0.4-0.4,0.4l0,0h0l0,0c-0.4,0-0.9,0.4-0.9,0.8l0,0c0,0.2-0.2,0.4-0.5,0.4
		c-0.2,0-0.4-0.2-0.4-0.5c0-0.2,0.2-0.4,0.4-0.4h0c0.4,0,0.9-0.4,0.9-0.8L10.6,21.6z"/>
	<path class="st1" d="M8.8,23.7L8.8,23.7c-0.5,0-0.9-0.4-0.9-0.8l0,0c0-0.2-0.2-0.4-0.5-0.4c-0.2,0-0.4,0.2-0.4,0.5
		c0,0.2,0.2,0.4,0.4,0.4h0c0.4,0,0.9,0.4,0.9,0.8l0,0c0,0.2,0.2,0.4,0.5,0.4c0.2,0,0.4-0.2,0.4-0.5C9.3,23.9,9.1,23.7,8.8,23.7
		L8.8,23.7z"/>
	<circle class="st1" cx="7.5" cy="27.8" r="0.4"/>
	<path class="st1" d="M8.8,24.8c-0.1,0-0.3,0.1-0.4,0.2l0,0c-0.2,0.2-0.4,0.2-0.6,0l0,0c-0.1-0.2-0.4-0.2-0.6-0.1
		C7,25,7,25.3,7.1,25.5c0.1,0.2,0.4,0.2,0.6,0.1c0,0,0.1-0.1,0.1-0.1l0,0c0.2-0.2,0.4-0.2,0.6,0l0,0c0.1,0.2,0.4,0.2,0.6,0.1
		c0.2-0.1,0.2-0.4,0.1-0.6C9.1,24.9,9,24.8,8.8,24.8z"/>
	<path class="st1" d="M10.6,27.8c0,0.2-0.2,0.4-0.4,0.4c-0.2,0-0.4-0.2-0.4-0.4c0-0.1,0.1-0.3,0.2-0.4c0.2-0.2,0.2-0.4,0-0.6
		c-0.2-0.1-0.2-0.4-0.1-0.6c0.1-0.1,0.2-0.2,0.4-0.2c0.1,0,0.2,0,0.2,0.1v0.5h0.2c0,0.1-0.1,0.2-0.2,0.3c-0.2,0.2-0.2,0.4,0,0.6
		C10.5,27.6,10.6,27.7,10.6,27.8z"/>
	<path class="st1" d="M10.4,24.9v0.7c-0.1,0-0.2,0.1-0.2,0.1h0c-0.4,0-0.9,0.4-0.9,0.8l0,0c0,0.2-0.2,0.4-0.5,0.4
		c-0.2,0-0.4-0.2-0.4-0.5c0-0.2,0.2-0.4,0.4-0.4h0c0.4,0,0.9-0.4,0.9-0.8c0-0.2,0.2-0.4,0.5-0.4C10.2,24.8,10.3,24.8,10.4,24.9
		L10.4,24.9z"/>
	<path class="st1" d="M8.8,27.4L8.8,27.4c-0.5,0-0.9-0.4-0.9-0.8l0,0c0-0.2-0.2-0.4-0.5-0.4c-0.2,0-0.4,0.2-0.4,0.5
		C7,26.8,7.2,27,7.5,27h0c0.4,0,0.9,0.4,0.9,0.8l0,0c0,0.2,0.2,0.4,0.5,0.4c0.2,0,0.4-0.2,0.4-0.5C9.3,27.6,9.1,27.4,8.8,27.4
		L8.8,27.4z"/>
	<path class="st1" d="M8.8,28.5c-0.1,0-0.3,0.1-0.4,0.2l0,0c-0.2,0.2-0.4,0.2-0.6,0l0,0c-0.1-0.2-0.4-0.2-0.6-0.1
		C7,28.7,7,29,7.1,29.2c0.1,0.2,0.4,0.2,0.6,0.1c0,0,0.1-0.1,0.1-0.1l0,0c0.2-0.2,0.4-0.2,0.6,0l0,0c0.1,0.2,0.4,0.2,0.6,0.1
		c0.2-0.1,0.2-0.4,0.1-0.6C9.1,28.5,9,28.5,8.8,28.5z"/>
	<path class="st1" d="M10.6,28.9c0,0.1,0,0.2-0.1,0.3h-0.1v0.1c-0.1,0-0.2,0.1-0.2,0.1h0c-0.4,0-0.9,0.4-0.9,0.8l0,0
		c0,0.2-0.2,0.4-0.5,0.4c-0.2,0-0.4-0.2-0.4-0.5c0-0.2,0.2-0.4,0.4-0.4h0c0.4,0,0.9-0.4,0.9-0.8c0-0.2,0.2-0.4,0.5-0.4
		C10.4,28.5,10.6,28.7,10.6,28.9L10.6,28.9z"/>
	<path class="st1" d="M11.6,24.2C11.6,24.2,11.6,24.2,11.6,24.2l-0.9,0.1c0,0,0,0,0-0.1c0-0.2,0.2-0.4,0.4-0.4
		C11.4,23.7,11.6,23.9,11.6,24.2L11.6,24.2z"/>
	<path class="st1" d="M13,21.6c0,0.2-0.2,0.4-0.4,0.4c-0.1,0-0.3-0.1-0.4-0.2c-0.2-0.2-0.4-0.2-0.6,0c-0.1,0.2-0.4,0.2-0.6,0.1
		c-0.1-0.1-0.2-0.2-0.2-0.4H13z"/>
	<path class="st1" d="M14.3,24.2C14.3,24.2,14.3,24.2,14.3,24.2l-0.9,0.1c0,0,0,0,0-0.1c0-0.1,0.1-0.3,0.2-0.4
		c0.2-0.2,0.2-0.4,0-0.6c-0.2-0.1-0.2-0.4-0.1-0.6c0.1-0.2,0.4-0.2,0.6-0.1c0.2,0.1,0.2,0.4,0.1,0.6c0,0-0.1,0.1-0.1,0.1
		c-0.2,0.2-0.2,0.4,0,0.6C14.2,23.9,14.3,24,14.3,24.2z"/>
	<path class="st1" d="M14.3,21.6c0,0.2-0.2,0.4-0.4,0.4l0,0h0l0,0c-0.4,0-0.9,0.4-0.9,0.8l0,0c0,0.2-0.2,0.4-0.5,0.4
		c-0.2,0-0.4-0.2-0.4-0.5c0-0.2,0.2-0.4,0.4-0.4h0c0.4,0,0.9-0.4,0.9-0.8L14.3,21.6z"/>
	<path class="st1" d="M13,24.2C13,24.2,13,24.2,13,24.2l-0.9,0.1c0,0,0,0,0,0l0,0c0-0.4-0.4-0.9-0.9-0.8l0,0h0
		c-0.2,0-0.4-0.2-0.4-0.4c0-0.2,0.2-0.4,0.4-0.4c0.2,0,0.4,0.2,0.4,0.4l0,0c0,0.4,0.4,0.9,0.9,0.8h0C12.8,23.7,13,23.9,13,24.2z"/>
	<path class="st1" d="M15.4,24.2C15.4,24.2,15.4,24.2,15.4,24.2l-0.9,0.1c0,0,0,0,0-0.1c0-0.2,0.2-0.4,0.4-0.4
		C15.2,23.7,15.4,23.9,15.4,24.2L15.4,24.2z"/>
	<path class="st1" d="M16.7,21.6c0,0.2-0.2,0.4-0.4,0.4c-0.1,0-0.3-0.1-0.4-0.2c-0.2-0.2-0.4-0.2-0.6,0c-0.1,0.2-0.4,0.2-0.6,0.1
		c-0.1-0.1-0.2-0.2-0.2-0.4H16.7z"/>
	<path class="st1" d="M17.7,23.5C17.7,23.5,17.7,23.6,17.7,23.5v0.7h-0.5c0,0,0,0,0-0.1c0-0.1,0.1-0.3,0.2-0.4
		c0.2-0.2,0.2-0.4,0-0.6c-0.2-0.1-0.2-0.4-0.1-0.6c0.1-0.1,0.2-0.2,0.4-0.2c0,0,0.1,0,0.1,0L17.7,23.5z"/>
	<path class="st1" d="M17.7,21.6V22c0,0-0.1,0-0.1,0h0l0,0c-0.4,0-0.9,0.4-0.9,0.8l0,0c0,0.2-0.2,0.4-0.5,0.4
		c-0.2,0-0.4-0.2-0.4-0.5c0-0.2,0.2-0.4,0.4-0.4h0c0.4,0,0.9-0.4,0.9-0.8L17.7,21.6z"/>
	<path class="st1" d="M16.7,24.2C16.7,24.2,16.7,24.2,16.7,24.2l-0.9,0.1c0,0,0,0,0,0l0,0c0-0.4-0.4-0.9-0.9-0.8l0,0h0
		c-0.2,0-0.4-0.2-0.4-0.4c0-0.2,0.2-0.4,0.4-0.4c0.2,0,0.4,0.2,0.4,0.4l0,0c0,0.4,0.4,0.9,0.9,0.8h0C16.5,23.7,16.7,23.9,16.7,24.2
		L16.7,24.2z"/>
	<circle class="st1" cx="11.3" cy="27.8" r="0.4"/>
	<path class="st1" d="M14.4,27.8c0,0.2-0.2,0.4-0.4,0.4c-0.2,0-0.4-0.2-0.4-0.4c0-0.1,0.1-0.3,0.2-0.4c0.2-0.2,0.2-0.4,0-0.6
		c-0.1-0.1-0.1-0.2-0.2-0.3h0.9c0,0.1-0.1,0.2-0.2,0.3l0,0c-0.2,0.2-0.2,0.4,0,0.6l0,0C14.3,27.6,14.4,27.7,14.4,27.8z"/>
	<path class="st1" d="M13,26.7c-0.1,0.2-0.3,0.4-0.5,0.3c-0.2,0-0.3-0.2-0.3-0.3H13z"/>
	<path class="st1" d="M13.1,27.8c0,0.2-0.2,0.4-0.4,0.5c-0.2,0-0.4-0.2-0.5-0.4l0,0l0,0c0-0.4-0.4-0.9-0.9-0.8l0,0h0
		c-0.2,0-0.4-0.1-0.4-0.3h0.9c0.1,0.4,0.5,0.7,0.9,0.7h0C12.9,27.4,13.1,27.6,13.1,27.8z"/>
	<circle class="st1" cx="15" cy="27.8" r="0.4"/>
	<path class="st1" d="M16.8,26.7L16.8,26.7c-0.1,0.2-0.3,0.4-0.5,0.3c-0.2,0-0.3-0.2-0.3-0.3H16.8z"/>
	<path class="st1" d="M16.8,27.7c-0.1-0.2-0.2-0.3-0.4-0.3h0c-0.4,0-0.8-0.3-0.9-0.7h-0.9c0,0.2,0.2,0.3,0.4,0.3h0l0,0
		c0.4,0,0.9,0.4,0.9,0.8l0,0c0,0.2,0.2,0.4,0.5,0.4c0.2,0,0.4-0.1,0.4-0.3L16.8,27.7z"/>
	<path class="st1" d="M13.1,28.9c0,0.1,0,0.2-0.1,0.3h-0.6c0,0,0,0,0-0.1c-0.2-0.2-0.4-0.2-0.6,0c0,0,0,0,0,0.1H11
		c-0.2-0.2-0.2-0.5,0-0.6c0.2-0.2,0.5-0.2,0.6,0c0,0,0,0,0,0.1l0,0c0.2,0.2,0.4,0.2,0.6,0l0,0c0.1-0.2,0.4-0.2,0.6-0.1
		C13,28.6,13.1,28.8,13.1,28.9L13.1,28.9z"/>
	<path class="st1" d="M14.3,28.9c0,0.1,0,0.2-0.1,0.3h-0.8c0-0.1,0.1-0.2,0.1-0.3c0-0.2,0.2-0.4,0.5-0.4
		C14.1,28.5,14.3,28.7,14.3,28.9L14.3,28.9z"/>
	<path class="st1" d="M16.8,28.8c-0.1-0.2-0.3-0.4-0.5-0.3c-0.1,0-0.2,0.1-0.2,0.2c-0.2,0.2-0.4,0.2-0.6,0c-0.1-0.2-0.4-0.2-0.6-0.1
		c-0.2,0.1-0.2,0.4-0.1,0.6c0,0,0,0,0,0.1h0.6c0,0,0,0,0-0.1c0.2-0.2,0.4-0.2,0.6,0c0,0,0,0,0,0.1h0.6c0.1-0.1,0.1-0.1,0.1-0.2
		L16.8,28.8z"/>
	<circle class="st1" cx="7.5" cy="31.5" r="0.4"/>
	<path class="st1" d="M10.4,31.1v0.7c-0.2,0.1-0.5,0.1-0.6-0.1c-0.1-0.2-0.1-0.4,0.1-0.6c0.2-0.2,0.2-0.4,0-0.6
		c-0.2-0.1-0.2-0.4-0.1-0.6c0.1-0.1,0.2-0.2,0.4-0.2c0.1,0,0.2,0,0.2,0.1v0.7C10.2,30.7,10.2,30.9,10.4,31.1z"/>
	<path class="st1" d="M10.6,28.9c0,0.1,0,0.2-0.1,0.3l-0.1,0.1c-0.1,0-0.2,0.1-0.2,0.1h0c-0.4,0-0.9,0.4-0.9,0.8l0,0
		c0,0.2-0.2,0.4-0.5,0.4c-0.2,0-0.4-0.2-0.4-0.5c0-0.2,0.2-0.4,0.4-0.4h0c0.4,0,0.9-0.4,0.9-0.8c0-0.2,0.2-0.4,0.5-0.4
		C10.4,28.5,10.6,28.7,10.6,28.9L10.6,28.9z"/>
	<path class="st1" d="M8.8,31L8.8,31c-0.5,0-0.9-0.4-0.9-0.8l0,0c0-0.2-0.2-0.4-0.5-0.4C7.2,29.8,7,30,7,30.2c0,0.2,0.2,0.4,0.4,0.4
		h0c0.4,0,0.9,0.4,0.9,0.8l0,0c0,0.2,0.2,0.4,0.5,0.4c0.2,0,0.4-0.2,0.4-0.5C9.3,31.2,9.1,31,8.8,31L8.8,31z"/>
	<path class="st1" d="M8.8,32.1c-0.1,0-0.3,0.1-0.4,0.2l0,0c-0.2,0.2-0.4,0.2-0.6,0l0,0c-0.1-0.2-0.4-0.2-0.6-0.1
		C7,32.3,7,32.6,7.1,32.8c0.1,0.2,0.4,0.2,0.6,0.1c0,0,0.1-0.1,0.1-0.1l0,0c0.2-0.2,0.4-0.2,0.6,0l0,0c0.1,0.2,0.4,0.2,0.6,0.1
		c0.2-0.1,0.2-0.4,0.1-0.6C9.1,32.2,9,32.1,8.8,32.1z"/>
	<path class="st1" d="M10.5,34c0,0.1-0.1,0.3-0.2,0.4c0,0-0.1,0.1-0.1,0.1H9.9c0,0-0.1-0.1-0.1-0.1c-0.2-0.1-0.2-0.4-0.1-0.6
		c0.1-0.2,0.4-0.2,0.6-0.1C10.4,33.7,10.5,33.9,10.5,34L10.5,34z"/>
	<path class="st1" d="M10.2,32.1c-0.2,0-0.4,0.2-0.4,0.4l0,0c0,0.4-0.4,0.9-0.9,0.8h0c-0.2,0-0.4,0.2-0.4,0.4c0,0.2,0.2,0.4,0.4,0.4
		c0.2,0,0.4-0.2,0.4-0.4l0,0c0-0.4,0.4-0.9,0.9-0.8h0c0.2,0,0.4-0.2,0.4-0.4S10.4,32.1,10.2,32.1L10.2,32.1z"/>
	<path class="st1" d="M8.3,34.5H8c-0.2-0.1-0.3-0.2-0.5-0.2l0,0h0c-0.2,0-0.4-0.2-0.4-0.4c0-0.2,0.2-0.4,0.4-0.4
		c0.2,0,0.4,0.2,0.4,0.4l0,0C7.9,34.1,8.1,34.3,8.3,34.5z"/>
	<path class="st1" d="M11.6,31.9c-0.1,0.2-0.4,0.2-0.6,0.1c0,0-0.1-0.1-0.1-0.1H11.6z"/>
	<path class="st1" d="M14.6,31.9c-0.1,0.2-0.4,0.3-0.6,0.2c-0.1,0-0.2-0.1-0.2-0.2H14.6z"/>
	<path class="st1" d="M14.3,28.9c0,0.1,0,0.2-0.1,0.3h-0.8c0-0.1,0.1-0.2,0.1-0.3c0-0.2,0.2-0.4,0.5-0.4
		C14.1,28.5,14.3,28.7,14.3,28.9L14.3,28.9z"/>
	<path class="st1" d="M13.3,31.9c-0.1,0.2-0.4,0.3-0.6,0.2c-0.1,0-0.2-0.1-0.2-0.2H13.3z"/>
	<path class="st1" d="M16.1,31.9c-0.1,0.2-0.4,0.3-0.6,0.2c-0.1,0-0.2-0.1-0.2-0.2H16.1z"/>
	<path class="st1" d="M17.7,31.9c-0.1,0.2-0.4,0.3-0.6,0.2c-0.1,0-0.2-0.1-0.2-0.2H17.7z"/>
	<path class="st1" d="M12.5,32.2c-0.1,0-0.3,0.1-0.4,0.2l0,0c-0.2,0.2-0.4,0.2-0.6,0l0,0c-0.1-0.2-0.4-0.2-0.6-0.1
		c-0.2,0.1-0.2,0.4-0.1,0.6c0.1,0.2,0.4,0.2,0.6,0.1c0,0,0.1-0.1,0.1-0.1l0,0c0.2-0.2,0.4-0.2,0.6,0l0,0c0.1,0.2,0.4,0.2,0.6,0.1
		c0.2-0.1,0.2-0.4,0.1-0.6C12.8,32.3,12.7,32.2,12.5,32.2z"/>
	<path class="st1" d="M14.2,34c0,0.1-0.1,0.3-0.2,0.4c0,0-0.1,0.1-0.1,0.1h-0.3c0,0-0.1-0.1-0.1-0.1c-0.2-0.1-0.2-0.4-0.1-0.6
		s0.4-0.2,0.6-0.1C14.1,33.7,14.2,33.9,14.2,34L14.2,34z"/>
	<path class="st1" d="M13.9,32.2c-0.2,0-0.4,0.2-0.4,0.4l0,0c0,0.4-0.4,0.9-0.9,0.8h0c-0.2,0-0.4,0.2-0.4,0.4c0,0.2,0.2,0.4,0.4,0.4
		c0.2,0,0.4-0.2,0.4-0.4l0,0c0-0.4,0.4-0.9,0.9-0.8h0c0.2,0,0.4-0.2,0.4-0.4S14.1,32.2,13.9,32.2L13.9,32.2z"/>
	<path class="st1" d="M11.8,34.5h-0.4c-0.1,0-0.1,0-0.2,0h0c-0.2,0-0.4-0.2-0.4-0.4c0-0.2,0.2-0.4,0.4-0.4c0.2,0,0.4,0.2,0.4,0.4
		l0,0C11.7,34.2,11.7,34.4,11.8,34.5z"/>
	<path class="st1" d="M16.3,32.2c-0.1,0-0.3,0.1-0.4,0.2l0,0c-0.2,0.2-0.4,0.2-0.6,0l0,0c-0.1-0.2-0.4-0.2-0.6-0.1
		c-0.2,0.1-0.2,0.4-0.1,0.6c0.1,0.2,0.4,0.2,0.6,0.1c0,0,0.1-0.1,0.1-0.1l0,0c0.2-0.2,0.4-0.2,0.6,0l0,0c0.1,0.2,0.4,0.2,0.6,0.1
		c0.2-0.1,0.2-0.4,0.1-0.6C16.6,32.3,16.5,32.2,16.3,32.2z"/>
	<path class="st1" d="M17.8,33.6v0.8c0,0-0.1,0-0.1,0.1h-0.3c0,0-0.1-0.1-0.1-0.1c-0.2-0.1-0.2-0.4-0.1-0.6c0.1-0.1,0.2-0.2,0.4-0.2
		C17.7,33.6,17.7,33.6,17.8,33.6z"/>
	<path class="st1" d="M17.8,32.3v0.8c-0.1,0-0.1,0.1-0.2,0.1h0c-0.4,0-0.9,0.4-0.9,0.8l0,0c0,0.2-0.2,0.4-0.5,0.4
		c-0.2,0-0.4-0.2-0.4-0.5c0-0.2,0.2-0.4,0.4-0.4h0c0.4,0,0.9-0.4,0.9-0.8c0-0.2,0.2-0.4,0.4-0.4C17.7,32.2,17.7,32.2,17.8,32.3z"/>
	<path class="st1" d="M15.5,34.5h-0.4c-0.1,0-0.1,0-0.2,0h0c-0.2,0-0.4-0.2-0.4-0.4s0.2-0.4,0.4-0.4c0.2,0,0.4,0.2,0.4,0.4l0,0
		C15.4,34.2,15.4,34.4,15.5,34.5z"/>
	<path class="st1" d="M21.9,21.8c0,0.2-0.2,0.4-0.4,0.4c-0.2,0-0.4-0.2-0.4-0.4c0-0.1,0-0.1,0-0.2h0.8
		C21.9,21.7,21.9,21.7,21.9,21.8z"/>
	<path class="st1" d="M24.4,22.1c-0.2,0.1-0.5,0.1-0.6-0.1c-0.1-0.1-0.1-0.2-0.1-0.3c0-0.1,0-0.1,0-0.2H24L24.4,22.1z"/>
	<path class="st1" d="M23.2,21.8c0,0.2-0.2,0.4-0.4,0.4c-0.2,0-0.4-0.2-0.4-0.4c0-0.1,0-0.1,0-0.2h0.9
		C23.2,21.7,23.2,21.7,23.2,21.8z"/>
	<circle class="st1" cx="21.5" cy="25.4" r="0.4"/>
	<path class="st1" d="M22.8,22.4c-0.1,0-0.3,0.1-0.4,0.2l0,0c-0.2,0.2-0.4,0.2-0.6,0l0,0c-0.1-0.2-0.4-0.2-0.6-0.1
		c-0.2,0.1-0.2,0.4-0.1,0.6c0.1,0.2,0.4,0.2,0.6,0.1c0,0,0.1-0.1,0.1-0.1l0,0c0.2-0.2,0.4-0.2,0.6,0l0,0c0.1,0.2,0.4,0.2,0.6,0.1
		s0.2-0.4,0.1-0.6C23.1,22.5,22.9,22.4,22.8,22.4z"/>
	<path class="st1" d="M24.4,25.1L24.4,25.1c-0.2-0.2-0.2-0.4,0-0.6l0,0c0.2-0.1,0.2-0.4,0.1-0.6c-0.1-0.2-0.4-0.2-0.6-0.1
		s-0.2,0.4-0.1,0.6c0,0,0.1,0.1,0.1,0.1l0,0c0.2,0.2,0.2,0.4,0,0.6l0,0c-0.2,0.1-0.2,0.4-0.1,0.6c0.1,0.2,0.4,0.2,0.6,0.1
		S24.6,25.4,24.4,25.1C24.5,25.1,24.4,25.1,24.4,25.1z"/>
	<path class="st1" d="M24.1,22.4c-0.2,0-0.4,0.2-0.4,0.4l0,0c0,0.4-0.4,0.9-0.9,0.8h0c-0.2,0-0.4,0.2-0.4,0.4c0,0.2,0.2,0.4,0.4,0.4
		c0.2,0,0.4-0.2,0.4-0.4l0,0c0-0.4,0.4-0.9,0.9-0.8h0c0.2,0,0.4-0.2,0.4-0.4S24.4,22.4,24.1,22.4z"/>
	<path class="st1" d="M22.8,25L22.8,25c-0.5,0-0.9-0.4-0.9-0.8l0,0c0-0.2-0.2-0.4-0.5-0.4c-0.2,0-0.4,0.2-0.4,0.5
		c0,0.2,0.2,0.4,0.4,0.4h0c0.4,0,0.9,0.4,0.9,0.8l0,0c0,0.2,0.2,0.4,0.5,0.4c0.2,0,0.4-0.2,0.4-0.5C23.2,25.2,23,25,22.8,25L22.8,25
		z"/>
	<circle class="st1" cx="25.2" cy="25.4" r="0.4"/>
	<path class="st1" d="M25.3,23.3c0,0-0.1,0-0.1,0c-0.2,0-0.4-0.2-0.4-0.4c0-0.1,0-0.2,0.1-0.2L25.3,23.3z"/>
	<path class="st1" d="M26.4,24.7C26.4,24.7,26.4,24.7,26.4,24.7c-0.3,0-0.5-0.2-0.5-0.4l0,0c0-0.1,0-0.1,0-0.2l0.2,0.2l0.2,0.2
		L26.4,24.7z"/>
	<path class="st1" d="M27,25.4c0,0.2-0.2,0.4-0.4,0.4c-0.2,0-0.4-0.2-0.4-0.4c0-0.4-0.4-0.9-0.9-0.8l0,0c0,0,0,0,0,0
		c-0.2,0-0.4-0.2-0.4-0.4c0-0.2,0.2-0.4,0.4-0.4c0.2,0,0.4,0.2,0.4,0.4l0,0c0,0.4,0.4,0.9,0.9,0.8h0c0,0,0.1,0,0.1,0l0,0L27,25.4
		C27,25.4,27,25.4,27,25.4z"/>
	<path class="st1" d="M22.8,26c-0.1,0-0.3,0.1-0.4,0.2l0,0c-0.2,0.2-0.4,0.2-0.6,0l0,0c-0.1-0.2-0.4-0.2-0.6-0.1
		c-0.2,0.1-0.2,0.4-0.1,0.6c0.1,0.2,0.4,0.2,0.6,0.1c0,0,0.1-0.1,0.1-0.1l0,0c0.2-0.2,0.4-0.2,0.6,0l0,0c0.1,0.2,0.4,0.2,0.6,0.1
		s0.2-0.4,0.1-0.6C23.1,26.1,22.9,26,22.8,26z"/>
	<path class="st1" d="M24.1,26c-0.2,0-0.4,0.2-0.4,0.4l0,0c0,0.4-0.4,0.9-0.9,0.8h0c-0.2,0-0.4,0.2-0.4,0.4c0,0.2,0.2,0.4,0.4,0.4
		c0.2,0,0.4-0.2,0.4-0.4l0,0c0-0.4,0.4-0.9,0.9-0.8h0c0.2,0,0.4-0.2,0.4-0.4C24.6,26.2,24.4,26,24.1,26L24.1,26z"/>
	<path class="st1" d="M26.5,26c-0.1,0-0.3,0.1-0.4,0.2l0,0c-0.2,0.2-0.4,0.2-0.6,0l0,0c-0.1-0.2-0.4-0.2-0.6-0.1
		c-0.2,0.1-0.2,0.4-0.1,0.6c0.1,0.2,0.4,0.2,0.6,0.1c0,0,0.1-0.1,0.1-0.1l0,0c0.2-0.2,0.4-0.2,0.6,0l0,0c0.1,0.2,0.4,0.2,0.6,0.1
		s0.2-0.4,0.1-0.6C26.8,26.1,26.7,26,26.5,26z"/>
	<path class="st1" d="M28.1,26.8c-0.1,0.1-0.2,0.1-0.3,0.1h0c-0.4,0-0.9,0.4-0.9,0.8c0,0.2-0.2,0.4-0.5,0.4s-0.4-0.2-0.4-0.5
		c0-0.2,0.2-0.4,0.4-0.4h0l0,0c0.4,0,0.9-0.4,0.9-0.8c0-0.1,0.1-0.2,0.2-0.3L28.1,26.8z"/>
	<path class="st1" d="M32,21.8c0,0.2-0.2,0.4-0.4,0.4c-0.2,0-0.4-0.2-0.4-0.4c0-0.1,0-0.1,0-0.2H32C32,21.7,32,21.7,32,21.8z"/>
	<path class="st1" d="M30.7,21.8c0,0.2-0.2,0.4-0.4,0.4c-0.1,0-0.3-0.1-0.4-0.2v-0.4h0.8C30.7,21.7,30.7,21.7,30.7,21.8z"/>
	<path class="st1" d="M33,21.6V22c-0.1,0.2-0.4,0.2-0.6,0.1c-0.1-0.1-0.2-0.2-0.2-0.4c0-0.1,0-0.1,0-0.2H33z"/>
	<path class="st1" d="M30.7,22.8c0,0.2-0.2,0.4-0.4,0.4c-0.1,0-0.3-0.1-0.4-0.2c0,0,0,0,0,0v-0.5c0,0,0,0,0,0
		c0.1-0.2,0.4-0.2,0.6-0.1C30.6,22.6,30.7,22.7,30.7,22.8z"/>
	<path class="st1" d="M31.8,25.1L31.8,25.1c-0.2-0.2-0.2-0.4,0-0.6l0,0c0.2-0.1,0.2-0.4,0.1-0.6c-0.1-0.2-0.4-0.2-0.6-0.1
		c-0.2,0.1-0.2,0.4-0.1,0.6c0,0,0.1,0.1,0.1,0.1l0,0c0.2,0.2,0.2,0.4,0,0.6l0,0c-0.2,0.1-0.2,0.4-0.1,0.6c0.1,0.2,0.4,0.2,0.6,0.1
		c0.2-0.1,0.2-0.4,0.1-0.6C31.9,25.1,31.9,25.1,31.8,25.1z"/>
	<path class="st1" d="M32,22.8c0,0.2-0.2,0.4-0.4,0.4h0c-0.4,0-0.9,0.4-0.9,0.8c0,0.2-0.2,0.4-0.5,0.4c-0.1,0-0.3-0.1-0.4-0.2v-0.5
		c0.1-0.1,0.2-0.2,0.4-0.2h0l0,0c0.4,0,0.9-0.4,0.9-0.8c0-0.2,0.2-0.4,0.5-0.4C31.8,22.4,32,22.6,32,22.8L32,22.8z"/>
	<path class="st1" d="M30.7,25.4c0,0.2-0.2,0.4-0.4,0.4c-0.1,0-0.3-0.1-0.4-0.2v-0.8c0.1,0.1,0.2,0.1,0.4,0.1h0
		C30.5,25,30.7,25.2,30.7,25.4z"/>
	<path class="st1" d="M33,25.1v0.5c-0.1,0.2-0.4,0.2-0.6,0.1c-0.2-0.1-0.2-0.4-0.1-0.6C32.4,25,32.7,24.9,33,25.1
		C32.9,25.1,32.9,25.1,33,25.1z"/>
	<path class="st1" d="M33,22.6v0.5c-0.1,0.2-0.4,0.2-0.6,0.1c-0.2-0.1-0.2-0.4-0.1-0.6C32.4,22.4,32.7,22.3,33,22.6
		C32.9,22.5,32.9,22.5,33,22.6z"/>
	<path class="st1" d="M33,23.9v0.8c-0.1-0.1-0.2-0.1-0.4-0.1l0,0c0,0,0,0,0,0c-0.2,0-0.4-0.2-0.4-0.4c0-0.2,0.2-0.4,0.4-0.4
		C32.7,23.7,32.9,23.7,33,23.9L33,23.9z"/>
	<path class="st1" d="M30.7,26.5c0,0.2-0.2,0.4-0.4,0.4c-0.1,0-0.3-0.1-0.4-0.2c0,0,0,0,0,0v-0.5c0,0,0,0,0,0
		c0.1-0.2,0.4-0.2,0.6-0.1C30.6,26.2,30.7,26.3,30.7,26.5z"/>
	<path class="st1" d="M32,26.5c0,0.2-0.2,0.4-0.4,0.4l0,0h0c-0.4,0-0.9,0.4-0.9,0.8c0,0.2-0.2,0.4-0.5,0.4c-0.1,0-0.3-0.1-0.4-0.2
		v-0.5c0.1-0.1,0.2-0.2,0.4-0.2h0l0,0c0.4,0,0.9-0.4,0.9-0.8c0-0.2,0.2-0.4,0.5-0.4C31.8,26,32,26.2,32,26.5L32,26.5z"/>
	<path class="st1" d="M33,26.2v0.5c-0.1,0.2-0.4,0.2-0.6,0.1s-0.2-0.4-0.1-0.6C32.4,26,32.7,26,33,26.2C32.9,26.2,32.9,26.2,33,26.2
		z"/>
	<circle class="st1" cx="21.5" cy="29.1" r="0.4"/>
	<path class="st1" d="M24.1,27.3v2.2l0,0c-0.2,0-0.4-0.2-0.4-0.4c0-0.1,0.1-0.3,0.2-0.4c0.2-0.2,0.2-0.4,0-0.6
		c-0.2-0.1-0.2-0.4-0.1-0.6C23.9,27.4,24,27.3,24.1,27.3L24.1,27.3z"/>
	<path class="st1" d="M24.1,26c-0.2,0-0.4,0.2-0.4,0.4l0,0c0,0.4-0.4,0.9-0.9,0.8h0c-0.2,0-0.4,0.2-0.4,0.4c0,0.2,0.2,0.4,0.4,0.4
		c0.2,0,0.4-0.2,0.4-0.4l0,0c0-0.4,0.4-0.9,0.9-0.8h0c0.2,0,0.4-0.2,0.4-0.4C24.6,26.2,24.4,26,24.1,26L24.1,26z"/>
	<path class="st1" d="M22.8,28.6L22.8,28.6c-0.5,0-0.9-0.4-0.9-0.8l0,0c0-0.2-0.2-0.4-0.5-0.4c-0.2,0-0.4,0.2-0.4,0.5
		c0,0.2,0.2,0.4,0.4,0.4h0c0.4,0,0.9,0.4,0.9,0.8l0,0c0,0.2,0.2,0.4,0.5,0.4c0.2,0,0.4-0.2,0.4-0.5C23.2,28.8,23,28.6,22.8,28.6
		L22.8,28.6z"/>
	<path class="st1" d="M28.1,28.7L28.1,28.7c-0.2-0.2-0.2-0.4,0-0.6l0,0c0.2-0.1,0.2-0.4,0.1-0.6s-0.4-0.2-0.6-0.1s-0.2,0.4-0.1,0.6
		c0,0,0.1,0.1,0.1,0.1l0,0c0.2,0.2,0.2,0.4,0,0.6l0,0c-0.2,0.1-0.2,0.4-0.1,0.6s0.4,0.2,0.6,0.1C28.3,29.3,28.3,29,28.1,28.7
		C28.2,28.8,28.1,28.7,28.1,28.7z"/>
	<path class="st1" d="M28.1,26.8c-0.1,0.1-0.2,0.1-0.3,0.1h0c-0.4,0-0.9,0.4-0.9,0.8c0,0.2-0.2,0.4-0.5,0.4s-0.4-0.2-0.4-0.5
		c0-0.2,0.2-0.4,0.4-0.4h0l0,0c0.4,0,0.9-0.4,0.9-0.8c0-0.1,0.1-0.2,0.2-0.3L28.1,26.8z"/>
	<path class="st1" d="M24.6,27.7L24.6,27.7c0.1-0.2,0.4-0.3,0.6-0.2c0.2,0.1,0.3,0.2,0.3,0.4c0,0.4,0.4,0.8,0.9,0.8h0
		c0.2,0,0.4,0.2,0.4,0.4c0,0.2-0.2,0.4-0.4,0.4c-0.2,0-0.4-0.2-0.4-0.4c0-0.4-0.4-0.8-0.8-0.8L24.6,27.7z"/>
	<circle class="st1" cx="21.5" cy="32.7" r="0.4"/>
	<path class="st1" d="M22.8,29.7c-0.1,0-0.3,0.1-0.4,0.2l0,0c-0.2,0.2-0.4,0.2-0.6,0l0,0c-0.1-0.2-0.4-0.2-0.6-0.1
		c-0.2,0.1-0.2,0.4-0.1,0.6c0.1,0.2,0.4,0.2,0.6,0.1c0,0,0.1-0.1,0.1-0.1l0,0c0.2-0.2,0.4-0.2,0.6,0l0,0c0.1,0.2,0.4,0.2,0.6,0.1
		s0.2-0.4,0.1-0.6C23.1,29.8,22.9,29.7,22.8,29.7z"/>
	<path class="st1" d="M24.1,31v2.2l0,0c-0.2,0-0.4-0.2-0.4-0.4c0-0.1,0.1-0.3,0.2-0.4c0.2-0.2,0.2-0.4,0-0.6
		c-0.2-0.1-0.2-0.4-0.1-0.6C23.9,31,24,31,24.1,31L24.1,31z"/>
	<path class="st1" d="M24.1,29.7v0.9h0c-0.4,0-0.9,0.4-0.9,0.8c0,0.2-0.2,0.4-0.5,0.4c-0.2,0-0.4-0.2-0.4-0.5c0-0.2,0.2-0.4,0.4-0.4
		h0l0,0c0.4,0,0.9-0.4,0.9-0.8C23.7,29.9,23.9,29.7,24.1,29.7L24.1,29.7z"/>
	<path class="st1" d="M22.8,32.3L22.8,32.3c-0.5,0-0.9-0.4-0.9-0.8l0,0c0-0.2-0.2-0.4-0.5-0.4S21,31.2,21,31.4
		c0,0.2,0.2,0.4,0.4,0.4h0c0.4,0,0.9,0.4,0.9,0.8l0,0c0,0.2,0.2,0.4,0.5,0.4c0.2,0,0.4-0.2,0.4-0.5C23.2,32.5,23,32.3,22.8,32.3
		L22.8,32.3z"/>
	<path class="st1" d="M27,30.1c0,0.1,0,0.2-0.1,0.3l-0.5-0.7c0.1,0,0.2-0.1,0.2-0.1C26.8,29.7,27,29.9,27,30.1z"/>
	<path class="st1" d="M28.3,31.4c0,0.1-0.1,0.3-0.2,0.4c-0.1,0-0.1,0.1-0.1,0.1l-0.5-0.7c0.1-0.2,0.4-0.3,0.6-0.2
		C28.2,31.1,28.3,31.3,28.3,31.4L28.3,31.4z"/>
	<path class="st1" d="M28.3,30.1c0,0.2-0.2,0.4-0.4,0.4l0,0h0c-0.2,0-0.5,0.1-0.7,0.3l-0.1-0.1c0.2-0.2,0.3-0.4,0.3-0.6
		c0-0.2,0.2-0.4,0.5-0.4C28.1,29.7,28.3,29.9,28.3,30.1L28.3,30.1L28.3,30.1z"/>
	<path class="st1" d="M22.8,33.5c-0.1,0-0.3,0.1-0.4,0.2l0,0c-0.2,0.2-0.4,0.2-0.6,0l0,0c-0.1-0.2-0.4-0.2-0.6-0.1
		C21,33.7,21,34,21.1,34.2c0.1,0.2,0.4,0.2,0.6,0.1c0,0,0.1-0.1,0.1-0.1l0,0c0.2-0.2,0.4-0.2,0.6,0l0,0c0.1,0.2,0.4,0.2,0.6,0.1
		c0.2-0.1,0.2-0.4,0.1-0.6C23.1,33.5,22.9,33.5,22.8,33.5z"/>
	<path class="st1" d="M24.1,33.5v0.9h0c-0.1,0-0.3,0-0.4,0.1h-0.3c0.1-0.2,0.2-0.3,0.2-0.6C23.7,33.7,23.9,33.5,24.1,33.5L24.1,33.5
		z"/>
	<circle class="st1" cx="28.9" cy="29.1" r="0.4"/>
	<path class="st1" d="M31.8,28.7L31.8,28.7c-0.2-0.2-0.2-0.4,0-0.6l0,0c0.2-0.1,0.2-0.4,0.1-0.6c-0.1-0.2-0.4-0.2-0.6-0.1
		c-0.2,0.1-0.2,0.4-0.1,0.6c0,0,0.1,0.1,0.1,0.1l0,0c0.2,0.2,0.2,0.4,0,0.6l0,0c-0.2,0.1-0.2,0.4-0.1,0.6c0.1,0.2,0.4,0.2,0.6,0.1
		c0.2-0.1,0.2-0.4,0.1-0.6C31.9,28.8,31.9,28.7,31.8,28.7z"/>
	<path class="st1" d="M32,26.5c0,0.2-0.2,0.4-0.4,0.4l0,0h0c-0.4,0-0.9,0.4-0.9,0.8c0,0.2-0.2,0.4-0.5,0.4c-0.1,0-0.3-0.1-0.4-0.2
		v-0.5c0.1-0.1,0.2-0.2,0.4-0.2h0l0,0c0.4,0,0.9-0.4,0.9-0.8c0-0.2,0.2-0.4,0.5-0.4C31.8,26,32,26.2,32,26.5L32,26.5z"/>
	<path class="st1" d="M29,28c0.1,0.1,0.1,0.2,0.2,0.3c-0.1,0-0.2-0.1-0.3-0.1l0,0c0,0,0,0,0,0c-0.2,0-0.4-0.2-0.4-0.4
		c0-0.1,0-0.2,0.1-0.3l0.1,0.1C28.8,27.7,28.9,27.8,29,28z"/>
	<path class="st1" d="M30.7,29.1c0,0.2-0.2,0.4-0.4,0.4c-0.2,0-0.4-0.2-0.4-0.4c0,0,0,0,0,0l0.1,0v-0.5c0.1,0.1,0.2,0.1,0.4,0.1h0
		C30.5,28.6,30.7,28.8,30.7,29.1z"/>
	<path class="st1" d="M33,28.8v0.5c-0.1,0.2-0.4,0.2-0.6,0.1c-0.2-0.1-0.2-0.4-0.1-0.6C32.4,28.6,32.7,28.6,33,28.8
		C32.9,28.7,32.9,28.8,33,28.8z"/>
	<path class="st1" d="M33,27.5v0.8c-0.1-0.1-0.2-0.1-0.4-0.1l0,0c0,0,0,0,0,0c-0.2,0-0.4-0.2-0.4-0.4c0-0.2,0.2-0.4,0.4-0.4
		C32.7,27.3,32.9,27.4,33,27.5L33,27.5z"/>
	<path class="st1" d="M29.3,32.7c0,0.2-0.2,0.4-0.4,0.4l-0.5-0.6c0.1-0.2,0.3-0.3,0.6-0.3C29.2,32.4,29.3,32.5,29.3,32.7z"/>
	<path class="st1" d="M30.2,29.7c-0.1,0-0.3,0.1-0.4,0.2l0,0c-0.2,0.2-0.4,0.2-0.6,0l0,0c-0.1-0.2-0.4-0.2-0.6-0.1
		c-0.2,0.1-0.2,0.4-0.1,0.6c0.1,0.2,0.4,0.2,0.6,0.1c0,0,0.1-0.1,0.1-0.1l0,0c0.2-0.2,0.4-0.2,0.6,0l0,0c0.1,0.2,0.4,0.2,0.6,0.1
		s0.2-0.4,0.1-0.6C30.5,29.8,30.4,29.7,30.2,29.7z"/>
	<path class="st1" d="M31.8,32.3L31.8,32.3c-0.2-0.2-0.2-0.4,0-0.6l0,0c0.2-0.1,0.2-0.4,0.1-0.6c-0.1-0.2-0.4-0.2-0.6-0.1
		c-0.2,0.1-0.2,0.4-0.1,0.6c0,0,0.1,0.1,0.1,0.1l0,0c0.2,0.2,0.2,0.4,0,0.6l0,0c-0.2,0.1-0.2,0.4-0.1,0.6c0.1,0.2,0.4,0.2,0.6,0.1
		s0.2-0.4,0.1-0.6C31.9,32.4,31.9,32.4,31.8,32.3z"/>
	<path class="st1" d="M31.6,29.7c-0.2,0-0.4,0.2-0.4,0.4l0,0c0,0.4-0.4,0.9-0.9,0.8h0c-0.2,0-0.4,0.2-0.4,0.4c0,0.2,0.2,0.4,0.4,0.4
		c0.2,0,0.4-0.2,0.4-0.4l0,0c0-0.4,0.4-0.9,0.9-0.8h0c0.2,0,0.4-0.2,0.4-0.4S31.8,29.7,31.6,29.7L31.6,29.7L31.6,29.7z"/>
	<path class="st1" d="M30.2,32.3L30.2,32.3c-0.5,0-0.9-0.4-0.9-0.8l0,0c0-0.2-0.2-0.4-0.5-0.4c-0.2,0-0.4,0.2-0.4,0.5
		c0,0.2,0.2,0.4,0.4,0.4h0c0.4,0,0.9,0.4,0.9,0.8l0,0c0,0.2,0.2,0.4,0.5,0.4c0.2,0,0.4-0.2,0.4-0.5C30.7,32.5,30.5,32.3,30.2,32.3
		L30.2,32.3z"/>
	<path class="st1" d="M33,32.5V33c-0.1,0.2-0.4,0.2-0.6,0.1s-0.2-0.4-0.1-0.6C32.4,32.3,32.7,32.3,33,32.5
		C32.9,32.4,32.9,32.5,33,32.5z"/>
	<path class="st1" d="M33,29.9v0.5c-0.1,0.2-0.4,0.2-0.6,0.1c-0.2-0.1-0.2-0.4-0.1-0.6C32.4,29.7,32.7,29.6,33,29.9
		C32.9,29.8,32.9,29.8,33,29.9z"/>
	<path class="st1" d="M33,31.2v0.8c-0.1-0.1-0.2-0.1-0.4-0.1l0,0c0,0,0,0,0,0c-0.2,0-0.4-0.2-0.4-0.4c0-0.2,0.2-0.4,0.4-0.4
		C32.7,31,32.9,31,33,31.2L33,31.2z"/>
	<path class="st1" d="M30.7,33.8c0,0.2-0.2,0.4-0.4,0.4c-0.1,0-0.3-0.1-0.4-0.2c-0.1-0.1-0.2-0.2-0.4-0.2l-0.3-0.4
		c0,0,0.1,0.1,0.1,0.1c0.2,0.2,0.4,0.2,0.6,0c0.1-0.2,0.4-0.2,0.6-0.1C30.6,33.5,30.7,33.6,30.7,33.8L30.7,33.8z"/>
	<path class="st1" d="M32,33.9c0,0.2-0.2,0.4-0.4,0.4h0c-0.2,0-0.4,0.1-0.5,0.2h-0.2c0.2-0.2,0.3-0.4,0.3-0.6c0-0.2,0.2-0.4,0.5-0.4
		C31.8,33.4,32,33.6,32,33.9L32,33.9L32,33.9z"/>
	<path class="st1" d="M33,33.6v0.5c-0.1,0.2-0.4,0.2-0.6,0.1s-0.2-0.4-0.1-0.6C32.4,33.4,32.7,33.4,33,33.6
		C32.9,33.5,32.9,33.6,33,33.6z"/>
	<path class="st1" d="M30.7,33.8c0,0.2-0.2,0.4-0.4,0.4c-0.1,0-0.3-0.1-0.4-0.2c-0.1-0.1-0.2-0.2-0.4-0.2l-0.3-0.4
		c0,0,0.1,0.1,0.1,0.1c0.2,0.2,0.4,0.2,0.6,0c0.1-0.2,0.4-0.2,0.6-0.1C30.6,33.5,30.7,33.6,30.7,33.8L30.7,33.8z"/>
</g>
</svg>
