<svg width="15" height="16" viewBox="0 0 15 16" fill="none" xmlns="http://www.w3.org/2000/svg">
<path d="M10.2321 0.792969H4.41535C2.05139 0.792969 0.128174 2.71619 0.128174 5.08014V10.8969C0.128174 13.2608 2.05139 15.184 4.41535 15.184H10.2321C12.596 15.184 14.5192 13.2608 14.5192 10.8969V5.08014C14.5192 2.71619 12.596 0.792969 10.2321 0.792969ZM13.0715 10.8969C13.0715 12.465 11.8002 13.7363 10.2321 13.7363H4.41535C2.84719 13.7363 1.57591 12.465 1.57591 10.8969V5.08014C1.57591 3.51195 2.84719 2.24071 4.41535 2.24071H10.2321C11.8002 2.24071 13.0715 3.51195 13.0715 5.08014V10.8969Z" fill="white"/>
<path d="M7.32312 4.26636C5.27078 4.26636 3.60107 5.93606 3.60107 7.98837C3.60107 10.0407 5.27078 11.7104 7.32312 11.7104C9.37545 11.7104 11.0452 10.0407 11.0452 7.98837C11.0452 5.93604 9.37545 4.26636 7.32312 4.26636ZM7.32312 10.2627C6.06704 10.2627 5.04881 9.24447 5.04881 7.9884C5.04881 6.73233 6.06707 5.7141 7.32312 5.7141C8.57919 5.7141 9.59742 6.73233 9.59742 7.9884C9.59742 9.24444 8.57916 10.2627 7.32312 10.2627Z" fill="white"/>
<path d="M11.0532 5.18605C11.5458 5.18605 11.9451 4.78675 11.9451 4.2942C11.9451 3.80164 11.5458 3.40234 11.0532 3.40234C10.5607 3.40234 10.1614 3.80164 10.1614 4.2942C10.1614 4.78675 10.5607 5.18605 11.0532 5.18605Z" fill="white"/>
</svg>
