<svg width="32" height="33" viewBox="0 0 32 33" fill="none" xmlns="http://www.w3.org/2000/svg">
<path d="M25.0728 30.5818H0.144531V28.3241C0.146713 25.0184 1.46198 21.849 3.80101 19.513C6.14003 17.1771 9.31119 15.866 12.6169 15.8682C15.9226 15.8703 19.0921 17.1856 21.428 19.5247C23.764 21.8637 25.075 25.0349 25.0728 28.3406V30.5818Z" fill="#FFBD05"/>
<path d="M11.7887 15.3313C15.8303 15.3313 19.1067 12.0549 19.1067 8.0133C19.1067 3.97169 15.8303 0.695312 11.7887 0.695312C7.74708 0.695312 4.4707 3.97169 4.4707 8.0133C4.4707 12.0549 7.74708 15.3313 11.7887 15.3313Z" fill="#FFBD05"/>
<path d="M15.7847 17.5177C14.1959 17.5177 12.6428 17.0466 11.3218 16.1638C10.0008 15.2811 8.97117 14.0264 8.36325 12.5585C7.75532 11.0906 7.59634 9.47541 7.90644 7.91715C8.21653 6.35889 8.98178 4.92759 10.1054 3.80425C11.229 2.68092 12.6605 1.91602 14.2188 1.60628C15.7771 1.29654 17.3923 1.45587 18.8601 2.06414C20.3278 2.6724 21.5822 3.70227 22.4647 5.02349C23.3471 6.34472 23.8179 7.89795 23.8176 9.48677C23.8142 11.616 22.9667 13.657 21.461 15.1624C19.9552 16.6678 17.914 17.5148 15.7847 17.5177ZM15.7847 2.88357C14.4788 2.88357 13.2021 3.27084 12.1162 3.99641C11.0303 4.72198 10.184 5.75326 9.68422 6.95983C9.18444 8.16641 9.05368 9.49409 9.30846 10.775C9.56325 12.0559 10.1921 13.2325 11.1156 14.1559C12.0391 15.0794 13.2156 15.7083 14.4965 15.9631C15.7774 16.2179 17.1051 16.0871 18.3117 15.5873C19.5183 15.0875 20.5495 14.2412 21.2751 13.1553C22.0007 12.0694 22.388 10.7928 22.388 9.48677C22.3865 7.73594 21.6903 6.05723 20.4523 4.81921C19.2143 3.58118 17.5356 2.88503 15.7847 2.88357Z" fill="#2D4154"/>
<path d="M3.57255 32.4939C3.40835 32.4935 3.24926 32.4366 3.12208 32.3327C2.99491 32.2288 2.90738 32.0843 2.8742 31.9235C2.6958 31.0493 2.60577 30.1594 2.60547 29.2673C2.60591 26.8378 3.2778 24.4557 4.54696 22.384C5.81612 20.3124 7.63319 18.6319 9.79742 17.528C11.9617 16.4241 14.3888 15.9399 16.811 16.1288C19.2331 16.3176 21.5559 17.1723 23.5229 18.5983C23.6763 18.7098 23.7792 18.8777 23.8089 19.0651C23.8385 19.2525 23.7925 19.4439 23.681 19.5974C23.5695 19.7508 23.4016 19.8537 23.2142 19.8834C23.0269 19.913 22.8354 19.867 22.682 19.7555C20.9287 18.4849 18.8585 17.7235 16.6999 17.5551C14.5412 17.3868 12.378 17.8181 10.449 18.8016C8.52 19.785 6.90018 21.2822 5.76836 23.1281C4.63654 24.9739 4.03673 27.0966 4.03508 29.2618C4.0342 30.06 4.11441 30.8563 4.27453 31.6383C4.31302 31.8228 4.27696 32.0149 4.17419 32.1729C4.07143 32.3308 3.91031 32.4416 3.72609 32.4811C3.6756 32.4915 3.62407 32.4958 3.57255 32.4939Z" fill="#2D4154"/>
<path d="M31.2519 27.039H20.3398C20.1502 27.039 19.9684 26.9637 19.8344 26.8296C19.7003 26.6956 19.625 26.5137 19.625 26.3242C19.625 26.1346 19.7003 25.9528 19.8344 25.8187C19.9684 25.6847 20.1502 25.6094 20.3398 25.6094H31.2519C31.4415 25.6094 31.6233 25.6847 31.7574 25.8187C31.8914 25.9528 31.9667 26.1346 31.9667 26.3242C31.9667 26.5137 31.8914 26.6956 31.7574 26.8296C31.6233 26.9637 31.4415 27.039 31.2519 27.039Z" fill="#2D4154"/>
<path d="M25.7871 32.494C25.5975 32.494 25.4157 32.4187 25.2816 32.2847C25.1476 32.1506 25.0723 31.9688 25.0723 31.7792V20.8671C25.0723 20.6776 25.1476 20.4958 25.2816 20.3617C25.4157 20.2277 25.5975 20.1523 25.7871 20.1523C25.9767 20.1523 26.1585 20.2277 26.2925 20.3617C26.4266 20.4958 26.5019 20.6776 26.5019 20.8671V31.7792C26.5019 31.9688 26.4266 32.1506 26.2925 32.2847C26.1585 32.4187 25.9767 32.494 25.7871 32.494Z" fill="#2D4154"/>
</svg>
