<svg width="13" height="13" viewBox="0 0 13 13" fill="none" xmlns="http://www.w3.org/2000/svg">
<path d="M11.0315 0.562012C11.3837 0.562012 11.7216 0.70195 11.9707 0.951042C12.2198 1.20013 12.3597 1.53798 12.3597 1.89025V11.1879C12.3597 11.5401 12.2198 11.878 11.9707 12.1271C11.7216 12.3762 11.3837 12.5161 11.0315 12.5161H1.73384C1.38157 12.5161 1.04373 12.3762 0.79464 12.1271C0.545548 11.878 0.405609 11.5401 0.405609 11.1879V1.89025C0.405609 1.53798 0.545548 1.20013 0.79464 0.951042C1.04373 0.70195 1.38157 0.562012 1.73384 0.562012H11.0315ZM10.6994 10.8558V7.336C10.6994 6.7618 10.4713 6.21112 10.0653 5.8051C9.65928 5.39908 9.1086 5.17098 8.5344 5.17098C7.9699 5.17098 7.31242 5.51632 6.99365 6.03433V5.29716H5.14076V10.8558H6.99365V7.58173C6.99365 7.07036 7.4054 6.65196 7.91677 6.65196C8.16336 6.65196 8.39985 6.74992 8.57421 6.92428C8.74858 7.09865 8.84653 7.33514 8.84653 7.58173V10.8558H10.6994ZM2.98238 4.2545C3.27829 4.2545 3.56208 4.13695 3.77131 3.92772C3.98055 3.71848 4.0981 3.43469 4.0981 3.13878C4.0981 2.52116 3.60001 2.01643 2.98238 2.01643C2.68471 2.01643 2.39924 2.13468 2.18876 2.34516C1.97827 2.55564 1.86002 2.84112 1.86002 3.13878C1.86002 3.75641 2.36475 4.2545 2.98238 4.2545ZM3.9055 10.8558V5.29716H2.0659V10.8558H3.9055Z" fill="white"/>
</svg>
