<svg width="58" height="74" viewBox="0 0 58 74" fill="none" xmlns="http://www.w3.org/2000/svg">
<path d="M16.8867 52.8199V9.16016L31.7803 26.1645V69.8242L16.8867 52.8199Z" fill="#FFBD05"/>
<path d="M32.1775 29.6454L10.3335 18.7434V60.2412L31.9789 70.5277H32.1775L57.0002 60.2412V18.7434L31.9789 29.6454V70.5277" fill="white"/>
<path d="M32.1775 29.6454L10.3335 18.7434V60.2412L31.9789 70.5277H32.1775L57.0002 60.2412V18.7434L31.9789 29.6454V70.5277" stroke="#1B192E" stroke-width="1.5" stroke-miterlimit="10"/>
<path d="M22.6454 72.286L1 61.9995V20.4138L22.844 31.4037L22.6454 72.286Z" stroke="#F4992C" stroke-width="1.5" stroke-miterlimit="10"/>
<path d="M46.376 52.2405L45.4824 52.5922V39.5802L46.2767 39.1406L46.376 52.2405Z" stroke="black" stroke-width="0.75" stroke-miterlimit="10"/>
<path d="M50.4466 52.4161L41.4111 56.4604C42.473 54.7879 44.0142 53.3929 45.8792 52.4161C46.5683 52.0477 47.358 51.853 48.1629 51.853C48.9678 51.853 49.7575 52.0477 50.4466 52.4161Z" stroke="black" stroke-width="0.75" stroke-miterlimit="10"/>
<path d="M50.3475 37.2944L41.312 41.3387C42.3739 39.6662 43.9151 38.2711 45.7801 37.2944C47.5673 36.591 49.156 36.591 50.3475 37.2944Z" stroke="black" stroke-width="0.75" stroke-miterlimit="10"/>
<path d="M44.1917 46.7896L38.0356 49.603L40.0215 44.4158L41.2129 41.4265L42.4044 43.5366L44.1917 46.7896Z" stroke="black" stroke-width="0.75" stroke-linecap="round" stroke-linejoin="round"/>
<path d="M44.1917 46.7893C44.1917 49.251 42.8016 51.8886 41.1137 52.6798C39.4258 53.4711 38.0356 52.0644 38.0356 49.6027L44.1917 46.7893Z" fill="#F4992C" stroke="black" stroke-width="0.75" stroke-linecap="round" stroke-linejoin="round"/>
<path d="M53.5249 42.5693L47.2695 45.3827L49.3546 40.1955L50.5461 37.2942L51.7376 39.3163L53.5249 42.5693Z" stroke="black" stroke-width="0.75" stroke-linecap="round" stroke-linejoin="round"/>
<path d="M53.5247 42.5693C53.5247 45.0311 52.1346 47.6686 50.4466 48.4599C48.7587 49.2512 47.3687 47.8445 47.3687 45.3828L53.5247 42.5693Z" fill="#F4992C" stroke="black" stroke-width="0.75" stroke-linecap="round" stroke-linejoin="round"/>
<path d="M41.8705 41.6574C42.0267 41.0914 41.851 40.5671 41.4781 40.4864C41.1052 40.4058 40.6763 40.7992 40.5201 41.3652C40.3639 41.9313 40.5396 42.4555 40.9125 42.5362C41.2854 42.6169 41.7143 42.2234 41.8705 41.6574Z" fill="#F4992C" stroke="black" stroke-width="0.75" stroke-miterlimit="10"/>
<path d="M51.0262 37.5581C51.1824 36.9921 51.0067 36.4678 50.6338 36.3871C50.2609 36.3064 49.832 36.6999 49.6759 37.2659C49.5197 37.832 49.6954 38.3562 50.0683 38.4368C50.4411 38.5175 50.87 38.1241 51.0262 37.5581Z" fill="#F4992C" stroke="black" stroke-width="0.75" stroke-miterlimit="10"/>
<path d="M46.7535 38.5822C46.9747 37.7803 46.7655 37.0462 46.2861 36.9425C45.8066 36.8387 45.2386 37.4047 45.0173 38.2066C44.7961 39.0084 45.0054 39.7425 45.4848 39.8463C45.9642 39.95 46.5322 39.3841 46.7535 38.5822Z" fill="#F4992C" stroke="black" stroke-width="0.75" stroke-miterlimit="10"/>
</svg>
