<svg width="16" height="12" viewBox="0 0 16 12" fill="none" xmlns="http://www.w3.org/2000/svg">
<path d="M14.936 1.45744C14.7099 1.5577 14.4775 1.64233 14.24 1.71105C14.5212 1.39304 14.7355 1.01888 14.8664 0.609436C14.8958 0.517666 14.8653 0.41721 14.7899 0.357172C14.7146 0.297107 14.6099 0.289911 14.5269 0.339071C14.0225 0.638218 13.4784 0.853212 12.9078 0.978908C12.333 0.417294 11.5524 0.0976562 10.7454 0.0976562C9.04191 0.0976562 7.65601 1.48352 7.65601 3.18694C7.65601 3.3211 7.6645 3.45453 7.68131 3.5861C5.56746 3.4005 3.60225 2.36151 2.25275 0.706126C2.20466 0.647128 2.13057 0.615311 2.05471 0.62141C1.97882 0.627341 1.9106 0.670148 1.87226 0.735948C1.59855 1.20559 1.45386 1.74276 1.45386 2.2893C1.45386 3.0337 1.71961 3.73996 2.18909 4.29185C2.04633 4.24241 1.90782 4.18063 1.7756 4.10724C1.70463 4.06772 1.618 4.06834 1.54748 4.10875C1.47693 4.1492 1.43269 4.22355 1.43081 4.30483C1.43047 4.31852 1.43047 4.33221 1.43047 4.34609C1.43047 5.45721 2.02849 6.45758 2.94279 7.00281C2.86423 6.99497 2.78576 6.98358 2.70776 6.96868C2.62734 6.95331 2.54468 6.9815 2.49046 7.04283C2.43616 7.10411 2.41817 7.18952 2.44321 7.26752C2.78162 8.32411 3.65293 9.10125 4.70625 9.3382C3.83262 9.88539 2.83357 10.172 1.78479 10.172C1.56595 10.172 1.34587 10.1592 1.13048 10.1337C1.02348 10.1209 0.921165 10.1841 0.88471 10.2859C0.848255 10.3877 0.886902 10.5012 0.977914 10.5595C2.32524 11.4234 3.88313 11.88 5.48309 11.88C8.62839 11.88 10.596 10.3968 11.6927 9.15258C13.0604 7.60107 13.8447 5.54749 13.8447 3.51841C13.8447 3.43364 13.8434 3.34805 13.8408 3.26272C14.3804 2.8562 14.8449 2.36421 15.2229 1.79875C15.2804 1.71288 15.2741 1.59935 15.2076 1.52031C15.1412 1.44114 15.0305 1.41556 14.936 1.45744Z" fill="white"/>
</svg>
