<svg width="23" height="22" viewBox="0 0 23 22" fill="none" xmlns="http://www.w3.org/2000/svg">
<ellipse cx="11.6857" cy="11" rx="10.9425" ry="11" fill="#E4DEDE"/>
<ellipse cx="11.7557" cy="11.0703" rx="8.20691" ry="8.24999" fill="#FFBD05"/>
<path d="M14.3878 8.46289H9.288C8.28744 8.46289 7.47632 9.27827 7.47632 10.2841V12.8468C7.47632 13.8526 8.28744 14.668 9.288 14.668H14.3878C15.3883 14.668 16.1995 13.8526 16.1995 12.8468V10.2841C16.1995 9.27827 15.3883 8.46289 14.3878 8.46289ZM13.1625 11.6901L10.7772 12.8338C10.7137 12.8642 10.6402 12.8177 10.6402 12.7469V10.3881C10.6402 10.3163 10.7156 10.2698 10.7793 10.3023L13.1646 11.5174C13.2355 11.5535 13.2343 11.6557 13.1625 11.6901Z" fill="white"/>
</svg>
